<?xml version="1.0" encoding="UTF-8" standalone="no"?>
<svg width="270px" height="210px" viewBox="0 0 270 210" version="1.1" xmlns="http://www.w3.org/2000/svg" xmlns:xlink="http://www.w3.org/1999/xlink" xmlns:sketch="http://www.bohemiancoding.com/sketch/ns">
    <!-- Generator: Sketch Beta 3.2 (9961) - http://www.bohemiancoding.com/sketch -->
    <title>box_title_sprite</title>
    <desc>Created with Sketch Beta.</desc>
    <defs></defs>
    <g id="未登录" stroke="none" stroke-width="1" fill="none" fill-rule="evenodd" sketch:type="MSPage">
        <g id="slice" sketch:type="MSArtboardGroup" transform="translate(-48.000000, -64.000000)">
            <path d="M80.6620053,68.7366142 L50.1416887,68.7366142 L50.1416887,69.8541308 L80.6620053,69.8541308 L80.6620053,68.7366142 Z M56.5986807,84.9805166 L64.6197889,84.9805166 L64.6197889,92.1246408 L56.5986807,92.1246408 L56.5986807,84.9805166 Z M56.5986807,76.7587871 L64.6197889,76.7587871 L64.6197889,83.8230887 L56.5986807,83.8230887 L56.5986807,76.7587871 Z M73.8039578,83.8230887 L65.7828496,83.8230887 L65.7828496,76.7587871 L73.8039578,76.7587871 L73.8039578,83.8230887 Z M73.8039578,92.1246408 L65.7828496,92.1246408 L65.7828496,84.9805166 L73.8039578,84.9805166 L73.8039578,92.1246408 Z M74.9670185,93.2820687 L74.9670185,75.6013592 L55.4356201,75.6013592 L55.4356201,93.2820687 L74.9670185,93.2820687 Z M80.0604222,77.8763038 L80.0604222,98.5902727 L50.7031662,98.5902727 L50.7031662,78.1955942 L49.5,78.1955942 L49.5,99.7477007 L80.0604222,99.7477007 L80.0604222,101.663443 L81.2234828,101.663443 L81.2234828,77.8763038 L80.0604222,77.8763038 Z M100.31372,83.9029113 C99.5918206,82.7454834 96.7443272,78.3951508 95.621372,76.8386098 L95.621372,75.0026896 L100.955409,75.0026896 L100.955409,73.8452616 L95.621372,73.8452616 L95.621372,65.863 L94.4583113,65.863 L94.4583113,73.8452616 L88.1617414,73.8452616 L88.1617414,75.0026896 L94.1775726,75.0026896 C92.8139842,81.149031 89.8862797,88.2532439 87.1992084,91.8053503 C87.5200528,92.0049069 87.8810026,92.40402 88.0815303,92.7233104 C90.4477573,89.5703171 92.8941953,83.7831774 94.4583113,78.3153282 L94.4583113,101.783177 L95.621372,101.783177 L95.621372,78.5947073 C96.9047493,80.5902727 98.7897098,83.7033548 99.4313984,84.9406053 L100.31372,83.9029113 Z M119.764908,79.6324013 C118.521636,84.900694 116.315831,89.2510266 113.508443,92.6833991 C110.861478,89.0115588 108.856201,84.5015809 107.532718,79.6324013 L119.764908,79.6324013 Z M120.446702,78.3951508 L120.206069,78.4749734 L104.043536,78.4749734 L104.043536,71.2909379 C110.179683,70.8120022 117.839842,69.8142195 121.730079,68.0980333 L120.927968,67.1800732 C117.158047,68.8563481 108.976517,69.8541308 102.880475,70.3330665 L102.880475,80.3108936 C102.880475,86.4971463 102.399208,94.9583437 97.9875989,101.184508 C98.2683377,101.304242 98.7496042,101.623532 98.9902375,101.863 C103.441953,95.517102 104.043536,86.6567916 104.043536,80.3508049 L104.043536,79.6324013 L106.489974,79.6324013 C107.853562,84.8607827 109.93905,89.690051 112.786544,93.6013592 C109.778628,96.9539091 106.24934,99.3884989 102.599736,100.865217 C102.880475,101.104685 103.241425,101.54371 103.401847,101.863 C106.97124,100.266548 110.540633,97.8718692 113.468338,94.5193193 C116.035092,97.7920466 119.123219,100.306459 122.732718,101.863 C122.973351,101.503798 123.334301,101.064774 123.655145,100.825306 C119.965435,99.4284102 116.797098,96.9139978 114.270449,93.6811818 C117.398681,89.8496962 119.885224,84.900694 121.168602,78.7144412 L120.446702,78.3951508 Z" id="画板-2" fill="#DDDDDD" sketch:type="MSShapeGroup"></path>
            <path d="M208.361214,69.6190976 L189.888391,69.6190976 L189.888391,70.3020244 L208.361214,70.3020244 L208.361214,69.6190976 Z M193.79657,79.5459268 L198.651451,79.5459268 L198.651451,83.9117805 L193.79657,83.9117805 L193.79657,79.5459268 Z M193.79657,74.5215366 L198.651451,74.5215366 L198.651451,78.8386098 L193.79657,78.8386098 L193.79657,74.5215366 Z M204.21029,78.8386098 L199.355409,78.8386098 L199.355409,74.5215366 L204.21029,74.5215366 L204.21029,78.8386098 Z M204.21029,83.9117805 L199.355409,83.9117805 L199.355409,79.5459268 L204.21029,79.5459268 L204.21029,83.9117805 Z M204.914248,84.6190976 L204.914248,73.8142195 L193.092612,73.8142195 L193.092612,84.6190976 L204.914248,84.6190976 Z M207.997098,75.2044634 L207.997098,87.863 L190.228232,87.863 L190.228232,75.3995854 L189.5,75.3995854 L189.5,88.5703171 L207.997098,88.5703171 L207.997098,89.7410488 L208.701055,89.7410488 L208.701055,75.2044634 L207.997098,75.2044634 Z M220.255673,78.8873902 C219.818734,78.1800732 218.095251,75.5215366 217.415567,74.5703171 L217.415567,73.4483659 L220.644063,73.4483659 L220.644063,72.7410488 L217.415567,72.7410488 L217.415567,67.863 L216.711609,67.863 L216.711609,72.7410488 L212.900528,72.7410488 L212.900528,73.4483659 L216.541689,73.4483659 C215.716359,77.2044634 213.944327,81.5459268 212.317942,83.7166585 C212.512137,83.8386098 212.730607,84.0825122 212.851979,84.2776341 C214.284169,82.3508049 215.764908,78.8142195 216.711609,75.4727561 L216.711609,89.8142195 L217.415567,89.8142195 L217.415567,75.6434878 C218.192348,76.863 219.333245,78.765439 219.721636,79.5215366 L220.255673,78.8873902 Z M232.02876,76.2776341 C231.276253,79.4971463 229.941161,82.1556829 228.241953,84.2532439 C226.639842,82.0093415 225.426121,79.2532439 224.625066,76.2776341 L232.02876,76.2776341 Z M232.441425,75.5215366 L232.295778,75.5703171 L222.513193,75.5703171 L222.513193,71.1800732 C226.227177,70.8873902 230.863588,70.2776341 233.218206,69.2288537 L232.732718,68.667878 C230.450923,69.6922683 225.498945,70.3020244 221.809235,70.5947073 L221.809235,76.6922683 C221.809235,80.4727561 221.517942,85.6434878 218.847757,89.4483659 C219.017678,89.5215366 219.308971,89.7166585 219.454617,89.863 C222.149077,85.9849512 222.513193,80.5703171 222.513193,76.7166585 L222.513193,76.2776341 L223.993931,76.2776341 C224.819261,79.4727561 226.08153,82.4239756 227.805013,84.8142195 C225.984433,86.863 223.848285,88.3508049 221.639314,89.2532439 C221.809235,89.3995854 222.027704,89.667878 222.124802,89.863 C224.285224,88.8873902 226.445646,87.4239756 228.217678,85.3751951 C229.77124,87.3751951 231.640369,88.9117805 233.825066,89.863 C233.970712,89.6434878 234.189182,89.3751951 234.383377,89.2288537 C232.150132,88.3751951 230.232454,86.8386098 228.703166,84.863 C230.59657,82.5215366 232.101583,79.4971463 232.878364,75.7166585 L232.441425,75.5215366 Z" id="画板-9" fill="#BBBBBB" sketch:type="MSShapeGroup"></path>
            <path d="M199.964,227.983 C199.916,231.271 199.748,243.991 189.5,248.839 C189.668,248.959 189.908,249.175 190.004,249.343 C197.108,245.911 199.46,238.807 200.252,233.527 C201.068,237.847 203.372,246.031 210.5,249.295 C210.596,249.103 210.836,248.839 211.004,248.743 C202.316,244.855 200.876,233.455 200.54,231.223 C200.636,229.831 200.66,228.703 200.684,227.983 L199.964,227.983 Z M221.924,238.687 L218.564,239.767 L218.564,233.767 L221.516,233.767 L221.516,233.071 L218.564,233.071 L218.564,227.911 L217.868,227.911 L217.868,233.071 L215.204,233.071 C215.444,231.895 215.636,230.623 215.804,229.375 L215.06,229.255 C214.724,232.327 214.148,235.423 213.14,237.535 C213.332,237.607 213.692,237.775 213.812,237.871 C214.316,236.743 214.748,235.327 215.06,233.767 L217.868,233.767 L217.868,239.983 C216.092,240.535 214.46,241.039 213.212,241.423 L213.476,242.119 C214.748,241.735 216.236,241.231 217.868,240.679 L217.868,249.487 L218.564,249.487 L218.564,240.487 C219.692,240.103 220.868,239.695 222.02,239.311 L221.924,238.687 Z M224.78,232.183 C225.284,230.863 225.74,229.471 226.1,228.007 L225.38,227.863 C224.492,231.583 222.98,235.039 220.868,237.271 C221.06,237.391 221.372,237.631 221.492,237.751 C222.644,236.431 223.652,234.775 224.468,232.879 L227.372,232.879 C226.244,237.103 223.844,241.639 221.132,243.775 C221.372,243.895 221.588,244.087 221.756,244.255 C224.564,241.927 226.964,237.223 228.116,232.879 L230.924,232.879 C229.7,239.359 226.844,245.791 222.788,248.743 C223.028,248.839 223.316,249.055 223.484,249.223 C227.564,246.103 230.372,239.503 231.644,232.879 L233.852,232.879 C233.252,243.367 232.58,247.231 231.692,248.167 C231.428,248.479 231.164,248.527 230.756,248.527 C230.276,248.527 229.148,248.503 227.876,248.407 C228.02,248.599 228.068,248.887 228.092,249.127 C229.148,249.223 230.228,249.247 230.852,249.223 C231.5,249.199 231.932,249.079 232.316,248.599 C233.348,247.447 233.948,243.847 234.572,232.711 C234.596,232.567 234.596,232.183 234.596,232.183 L224.78,232.183 Z" id="人物-3" fill="#BBBBBB" sketch:type="MSShapeGroup"></path>
            <path d="M65.6564591,226.04613 C65.5823469,231.063888 65.3229542,250.475653 49.5,257.874099 C49.7593927,258.057229 50.1299537,258.386862 50.2781781,258.643244 C61.2467833,253.40573 64.878281,242.564443 66.1011323,234.506729 C67.3610396,241.099404 70.9184251,253.58886 81.9240865,258.569992 C82.0723109,258.276984 82.4428718,257.874099 82.7022645,257.727595 C69.2879568,251.794188 67.0645908,234.396851 66.5458055,230.990636 C66.6940299,228.86633 66.7310859,227.144909 66.768142,226.04613 L65.6564591,226.04613 Z M99.5627895,242.381313 L94.3749357,244.029482 L94.3749357,234.872989 L98.9328358,234.872989 L98.9328358,233.810836 L94.3749357,233.810836 L94.3749357,225.936252 L93.3003088,225.936252 L93.3003088,233.810836 L89.1870818,233.810836 C89.5576428,232.016163 89.8540916,230.074987 90.1134843,228.170436 L88.9647452,227.987306 C88.4459599,232.675431 87.5566135,237.400181 86.0002573,240.623266 C86.2967061,240.733144 86.8525476,240.989526 87.0378281,241.13603 C87.8160062,239.414609 88.483016,237.253677 88.9647452,234.872989 L93.3003088,234.872989 L93.3003088,244.359115 C90.5581575,245.201513 88.0383428,245.970658 86.1114256,246.556674 L86.5190427,247.618827 C88.483016,247.032811 90.7804941,246.263666 93.3003088,245.421269 L93.3003088,258.863 L94.3749357,258.863 L94.3749357,245.128261 C96.1165723,244.542245 97.9323212,243.919604 99.7110139,243.333588 L99.5627895,242.381313 Z M103.972465,232.455675 C104.750643,230.441246 105.454709,228.31694 106.010551,226.082756 L104.898868,225.863 C103.527792,231.540026 101.193258,236.814165 97.9323212,240.220381 C98.2287699,240.403511 98.7104992,240.76977 98.8957797,240.9529 C100.674472,238.938472 102.230829,236.41128 103.490736,233.517828 L107.974524,233.517828 C106.232887,239.963999 102.527277,246.886307 98.3399382,250.146019 C98.7104992,250.329149 99.0440041,250.622156 99.3033968,250.878538 C103.63896,247.325819 107.34457,240.147129 109.123263,233.517828 L113.458827,233.517828 C111.568966,243.40684 107.15929,253.2226 100.896809,257.727595 C101.26737,257.874099 101.712043,258.203733 101.971436,258.460114 C108.270973,253.698738 112.606536,243.626596 114.57051,233.517828 L117.979671,233.517828 C117.053268,249.523377 116.015697,255.420159 114.644622,256.848572 C114.237005,257.324709 113.829388,257.397961 113.199434,257.397961 C112.458312,257.397961 110.716675,257.361335 108.752702,257.214831 C108.975039,257.507839 109.049151,257.947351 109.086207,258.31361 C110.716675,258.460114 112.3842,258.49674 113.347658,258.460114 C114.348173,258.423488 115.015183,258.240358 115.60808,257.507839 C117.201493,255.749792 118.127895,250.255897 119.091354,233.261446 C119.12841,233.04169 119.12841,232.455675 119.12841,232.455675 L103.972465,232.455675 Z" id="人物-2" fill="#DDDDDD" sketch:type="MSShapeGroup"></path>
            <path d="M287.36,236.363 C287.32,239.103 287.18,249.703 278.64,253.743 C278.78,253.843 278.98,254.023 279.06,254.163 C284.98,251.303 286.94,245.383 287.6,240.983 C288.28,244.583 290.2,251.403 296.14,254.123 C296.22,253.963 296.42,253.743 296.56,253.663 C289.32,250.423 288.12,240.923 287.84,239.063 C287.92,237.903 287.94,236.963 287.96,236.363 L287.36,236.363 Z M305.66,245.283 L302.86,246.183 L302.86,241.183 L305.32,241.183 L305.32,240.603 L302.86,240.603 L302.86,236.303 L302.28,236.303 L302.28,240.603 L300.06,240.603 C300.26,239.623 300.42,238.563 300.56,237.523 L299.94,237.423 C299.66,239.983 299.18,242.563 298.34,244.323 C298.5,244.383 298.8,244.523 298.9,244.603 C299.32,243.663 299.68,242.483 299.94,241.183 L302.28,241.183 L302.28,246.363 C300.8,246.823 299.44,247.243 298.4,247.563 L298.62,248.143 C299.68,247.823 300.92,247.403 302.28,246.943 L302.28,254.283 L302.86,254.283 L302.86,246.783 C303.8,246.463 304.78,246.123 305.74,245.803 L305.66,245.283 Z M308.04,239.863 C308.46,238.763 308.84,237.603 309.14,236.383 L308.54,236.263 C307.8,239.363 306.54,242.243 304.78,244.103 C304.94,244.203 305.2,244.403 305.3,244.503 C306.26,243.403 307.1,242.023 307.78,240.443 L310.2,240.443 C309.26,243.963 307.26,247.743 305,249.523 C305.2,249.623 305.38,249.783 305.52,249.923 C307.86,247.983 309.86,244.063 310.82,240.443 L313.16,240.443 C312.14,245.843 309.76,251.203 306.38,253.663 C306.58,253.743 306.82,253.923 306.96,254.063 C310.36,251.463 312.7,245.963 313.76,240.443 L315.6,240.443 C315.1,249.183 314.54,252.403 313.8,253.183 C313.58,253.443 313.36,253.483 313.02,253.483 C312.62,253.483 311.68,253.463 310.62,253.383 C310.74,253.543 310.78,253.783 310.8,253.983 C311.68,254.063 312.58,254.083 313.1,254.063 C313.64,254.043 314,253.943 314.32,253.543 C315.18,252.583 315.68,249.583 316.2,240.303 C316.22,240.183 316.22,239.863 316.22,239.863 L308.04,239.863 Z" id="人物" fill="#FFFFFF" sketch:type="MSShapeGroup" transform="translate(298.070000, 245.273000) rotate(-270.000000) translate(-298.070000, -245.273000) "></path>
            <path d="M295.54,77.44 L280.32,77.44 L280.32,78 L295.54,78 L295.54,77.44 Z M283.54,85.58 L287.54,85.58 L287.54,89.16 L283.54,89.16 L283.54,85.58 Z M283.54,81.46 L287.54,81.46 L287.54,85 L283.54,85 L283.54,81.46 Z M292.12,85 L288.12,85 L288.12,81.46 L292.12,81.46 L292.12,85 Z M292.12,89.16 L288.12,89.16 L288.12,85.58 L292.12,85.58 L292.12,89.16 Z M292.7,89.74 L292.7,80.88 L282.96,80.88 L282.96,89.74 L292.7,89.74 Z M295.24,82.02 L295.24,92.4 L280.6,92.4 L280.6,82.18 L280,82.18 L280,92.98 L295.24,92.98 L295.24,93.94 L295.82,93.94 L295.82,82.02 L295.24,82.02 Z M305.34,85.04 C304.98,84.46 303.56,82.28 303,81.5 L303,80.58 L305.66,80.58 L305.66,80 L303,80 L303,76 L302.42,76 L302.42,80 L299.28,80 L299.28,80.58 L302.28,80.58 C301.6,83.66 300.14,87.22 298.8,89 C298.96,89.1 299.14,89.3 299.24,89.46 C300.42,87.88 301.64,84.98 302.42,82.24 L302.42,94 L303,94 L303,82.38 C303.64,83.38 304.58,84.94 304.9,85.56 L305.34,85.04 Z M315.04,82.9 C314.42,85.54 313.32,87.72 311.92,89.44 C310.6,87.6 309.6,85.34 308.94,82.9 L315.04,82.9 Z M315.38,82.28 L315.26,82.32 L307.2,82.32 L307.2,78.72 C310.26,78.48 314.08,77.98 316.02,77.12 L315.62,76.66 C313.74,77.5 309.66,78 306.62,78.24 L306.62,83.24 C306.62,86.34 306.38,90.58 304.18,93.7 C304.32,93.76 304.56,93.92 304.68,94.04 C306.9,90.86 307.2,86.42 307.2,83.26 L307.2,82.9 L308.42,82.9 C309.1,85.52 310.14,87.94 311.56,89.9 C310.06,91.58 308.3,92.8 306.48,93.54 C306.62,93.66 306.8,93.88 306.88,94.04 C308.66,93.24 310.44,92.04 311.9,90.36 C313.18,92 314.72,93.26 316.52,94.04 C316.64,93.86 316.82,93.64 316.98,93.52 C315.14,92.82 313.56,91.56 312.3,89.94 C313.86,88.02 315.1,85.54 315.74,82.44 L315.38,82.28 Z" id="画板-3" fill="#FFFFFF" sketch:type="MSShapeGroup" transform="translate(298.950000, 85.020000) rotate(-270.000000) translate(-298.950000, -85.020000) "></path>
            <path d="M50.44,165.6 L50.44,166.76 L85.56,166.76 L85.56,165.6 L50.44,165.6 Z M73.48,170.52 C77.4,173.88 82.08,178.64 84.4,181.48 L85.2,180.8 C82.88,177.96 78.2,173.36 74.32,169.96 L73.48,170.52 Z M61.08,169.8 C58.84,173.56 54.4,177.76 50.36,180.52 C50.64,180.72 51.04,181.16 51.2,181.4 C55.32,178.52 59.68,174.16 62.24,170.2 L61.08,169.8 Z M50.96,150.28 C53.52,153.84 56.16,158.64 57.24,161.84 L58.4,161.32 C57.28,158.16 54.64,153.4 52,149.84 L50.96,150.28 Z M62.88,147.24 C64.92,151 66.84,156.04 67.52,159.28 L68.72,158.92 C68,155.68 66.04,150.68 63.96,146.88 L62.88,147.24 Z M83.32,147.96 C81,152.64 76.88,159.48 73.8,163.56 L74.84,164 C77.96,159.88 81.84,153.32 84.52,148.36 L83.32,147.96 Z M115.84,152.2 L123.32,152.2 C122.84,156.6 122.04,160.6 120.96,164.04 C119.48,161.2 117.88,158.32 116.28,155.72 L115.36,156.24 C117.12,159.08 118.92,162.4 120.48,165.56 C119.08,169.64 117.32,172.96 115.28,175.28 C115.56,175.48 116,175.88 116.2,176.16 C118.08,173.88 119.76,170.8 121.2,167 C122.56,170 123.72,172.72 124.4,174.84 L125.44,174.28 C124.68,171.96 123.32,168.8 121.68,165.48 C123.04,161.44 124,156.68 124.6,151.24 L123.92,151 L123.64,151.04 L115.84,151.04 L115.84,152.2 Z M113.36,154.8 L107.24,154.8 L107.24,148.76 L113.36,148.76 L113.36,154.8 Z M107.24,163.84 L113.36,163.84 L113.36,169.64 C111.24,170.32 109.12,170.88 107.24,171.44 L107.24,163.84 Z M113.36,162.68 L107.24,162.68 L107.24,155.96 L113.36,155.96 L113.36,162.68 Z M106.08,171.8 C104.88,172.16 103.76,172.48 102.8,172.68 L103.2,173.88 C106.04,173 109.64,171.92 113.36,170.76 L113.36,177.52 L114.48,177.52 L114.48,170.44 L116.6,169.8 L116.44,168.72 L114.48,169.32 L114.48,148.76 L116.48,148.76 L116.48,147.6 L103.96,147.6 L103.96,148.76 L106.08,148.76 L106.08,171.8 Z M110.52,179.6 C105.36,179.6 101.68,179.04 98.96,177.4 L98.96,167.4 L104.36,167.4 L104.36,166.24 L98.96,166.24 L98.96,159.72 L104.52,159.72 L104.52,158.56 L98.4,158.56 L98.4,152.4 L103.8,152.4 L103.8,151.24 L98.4,151.24 L98.4,145.8 L97.24,145.8 L97.24,151.24 L91.28,151.24 L91.28,152.4 L97.24,152.4 L97.24,158.56 L90.24,158.56 L90.24,159.72 L97.8,159.72 L97.8,176.56 C95.92,174.96 94.64,172.64 93.68,169.28 C93.84,167.32 93.88,165.4 93.88,163.68 L92.8,163.64 C92.84,168.84 92.48,176.04 89.48,181.04 C89.76,181.16 90.12,181.44 90.36,181.72 C92.08,178.88 93,175.44 93.4,172 C96.08,178.92 100.68,180.76 110.6,180.76 L125.56,180.76 C125.64,180.44 125.92,179.92 126.16,179.6 L110.52,179.6 Z" id="兴趣" fill="#DDDDDD" sketch:type="MSShapeGroup"></path>
            <path d="M189.464,158.96 L189.464,159.656 L210.536,159.656 L210.536,158.96 L189.464,158.96 Z M203.288,161.912 C205.64,163.928 208.448,166.784 209.84,168.488 L210.32,168.08 C208.928,166.376 206.12,163.616 203.792,161.576 L203.288,161.912 Z M195.848,161.48 C194.504,163.736 191.84,166.256 189.416,167.912 C189.584,168.032 189.824,168.296 189.92,168.44 C192.392,166.712 195.008,164.096 196.544,161.72 L195.848,161.48 Z M189.776,149.768 C191.312,151.904 192.896,154.784 193.544,156.704 L194.24,156.392 C193.568,154.496 191.984,151.64 190.4,149.504 L189.776,149.768 Z M196.928,147.944 C198.152,150.2 199.304,153.224 199.712,155.168 L200.432,154.952 C200,153.008 198.824,150.008 197.576,147.728 L196.928,147.944 Z M209.192,148.376 C207.8,151.184 205.328,155.288 203.48,157.736 L204.104,158 C205.976,155.528 208.304,151.592 209.912,148.616 L209.192,148.376 Z M228.704,150.92 L233.192,150.92 C232.904,153.56 232.424,155.96 231.776,158.024 C230.888,156.32 229.928,154.592 228.968,153.032 L228.416,153.344 C229.472,155.048 230.552,157.04 231.488,158.936 C230.648,161.384 229.592,163.376 228.368,164.768 C228.536,164.888 228.8,165.128 228.92,165.296 C230.048,163.928 231.056,162.08 231.92,159.8 C232.736,161.6 233.432,163.232 233.84,164.504 L234.464,164.168 C234.008,162.776 233.192,160.88 232.208,158.888 C233.024,156.464 233.6,153.608 233.96,150.344 L233.552,150.2 L233.384,150.224 L228.704,150.224 L228.704,150.92 Z M227.216,152.48 L223.544,152.48 L223.544,148.856 L227.216,148.856 L227.216,152.48 Z M223.544,157.904 L227.216,157.904 L227.216,161.384 C225.944,161.792 224.672,162.128 223.544,162.464 L223.544,157.904 Z M227.216,157.208 L223.544,157.208 L223.544,153.176 L227.216,153.176 L227.216,157.208 Z M222.848,162.68 C222.128,162.896 221.456,163.088 220.88,163.208 L221.12,163.928 C222.824,163.4 224.984,162.752 227.216,162.056 L227.216,166.112 L227.888,166.112 L227.888,161.864 L229.16,161.48 L229.064,160.832 L227.888,161.192 L227.888,148.856 L229.088,148.856 L229.088,148.16 L221.576,148.16 L221.576,148.856 L222.848,148.856 L222.848,162.68 Z M225.512,167.36 C222.416,167.36 220.208,167.024 218.576,166.04 L218.576,160.04 L221.816,160.04 L221.816,159.344 L218.576,159.344 L218.576,155.432 L221.912,155.432 L221.912,154.736 L218.24,154.736 L218.24,151.04 L221.48,151.04 L221.48,150.344 L218.24,150.344 L218.24,147.08 L217.544,147.08 L217.544,150.344 L213.968,150.344 L213.968,151.04 L217.544,151.04 L217.544,154.736 L213.344,154.736 L213.344,155.432 L217.88,155.432 L217.88,165.536 C216.752,164.576 215.984,163.184 215.408,161.168 C215.504,159.992 215.528,158.84 215.528,157.808 L214.88,157.784 C214.904,160.904 214.688,165.224 212.888,168.224 C213.056,168.296 213.272,168.464 213.416,168.632 C214.448,166.928 215,164.864 215.24,162.8 C216.848,166.952 219.608,168.056 225.56,168.056 L234.536,168.056 C234.584,167.864 234.752,167.552 234.896,167.36 L225.512,167.36 Z" id="兴趣-2" fill="#BBBBBB" sketch:type="MSShapeGroup"></path>
            <path d="M277.098,160.97 L277.098,161.492 L292.902,161.492 L292.902,160.97 L277.098,160.97 Z M287.466,163.184 C289.23,164.696 291.336,166.838 292.38,168.116 L292.74,167.81 C291.696,166.532 289.59,164.462 287.844,162.932 L287.466,163.184 Z M281.886,162.86 C280.878,164.552 278.88,166.442 277.062,167.684 C277.188,167.774 277.368,167.972 277.44,168.08 C279.294,166.784 281.256,164.822 282.408,163.04 L281.886,162.86 Z M277.332,154.076 C278.484,155.678 279.672,157.838 280.158,159.278 L280.68,159.044 C280.176,157.622 278.988,155.48 277.8,153.878 L277.332,154.076 Z M282.696,152.708 C283.614,154.4 284.478,156.668 284.784,158.126 L285.324,157.964 C285,156.506 284.118,154.256 283.182,152.546 L282.696,152.708 Z M291.894,153.032 C290.85,155.138 288.996,158.216 287.61,160.052 L288.078,160.25 C289.482,158.396 291.228,155.444 292.434,153.212 L291.894,153.032 Z M306.528,154.94 L309.894,154.94 C309.678,156.92 309.318,158.72 308.832,160.268 C308.166,158.99 307.446,157.694 306.726,156.524 L306.312,156.758 C307.104,158.036 307.914,159.53 308.616,160.952 C307.986,162.788 307.194,164.282 306.276,165.326 C306.402,165.416 306.6,165.596 306.69,165.722 C307.536,164.696 308.292,163.31 308.94,161.6 C309.552,162.95 310.074,164.174 310.38,165.128 L310.848,164.876 C310.506,163.832 309.894,162.41 309.156,160.916 C309.768,159.098 310.2,156.956 310.47,154.508 L310.164,154.4 L310.038,154.418 L306.528,154.418 L306.528,154.94 Z M305.412,156.11 L302.658,156.11 L302.658,153.392 L305.412,153.392 L305.412,156.11 Z M302.658,160.178 L305.412,160.178 L305.412,162.788 C304.458,163.094 303.504,163.346 302.658,163.598 L302.658,160.178 Z M305.412,159.656 L302.658,159.656 L302.658,156.632 L305.412,156.632 L305.412,159.656 Z M302.136,163.76 C301.596,163.922 301.092,164.066 300.66,164.156 L300.84,164.696 C302.118,164.3 303.738,163.814 305.412,163.292 L305.412,166.334 L305.916,166.334 L305.916,163.148 L306.87,162.86 L306.798,162.374 L305.916,162.644 L305.916,153.392 L306.816,153.392 L306.816,152.87 L301.182,152.87 L301.182,153.392 L302.136,153.392 L302.136,163.76 Z M304.134,167.27 C301.812,167.27 300.156,167.018 298.932,166.28 L298.932,161.78 L301.362,161.78 L301.362,161.258 L298.932,161.258 L298.932,158.324 L301.434,158.324 L301.434,157.802 L298.68,157.802 L298.68,155.03 L301.11,155.03 L301.11,154.508 L298.68,154.508 L298.68,152.06 L298.158,152.06 L298.158,154.508 L295.476,154.508 L295.476,155.03 L298.158,155.03 L298.158,157.802 L295.008,157.802 L295.008,158.324 L298.41,158.324 L298.41,165.902 C297.564,165.182 296.988,164.138 296.556,162.626 C296.628,161.744 296.646,160.88 296.646,160.106 L296.16,160.088 C296.178,162.428 296.016,165.668 294.666,167.918 C294.792,167.972 294.954,168.098 295.062,168.224 C295.836,166.946 296.25,165.398 296.43,163.85 C297.636,166.964 299.706,167.792 304.17,167.792 L310.902,167.792 C310.938,167.648 311.064,167.414 311.172,167.27 L304.134,167.27 Z" id="兴趣-2" fill="#FFFFFF" sketch:type="MSShapeGroup" transform="translate(294.531000, 160.142000) rotate(-270.000000) translate(-294.531000, -160.142000) "></path>
        </g>
    </g>
</svg>