<?xml version="1.0" encoding="UTF-8" standalone="no"?>
<svg width="30px" height="14px" viewBox="0 0 30 14" version="1.1" xmlns="http://www.w3.org/2000/svg" xmlns:xlink="http://www.w3.org/1999/xlink">
    <!-- Generator: sketchtool 3.7.1 (28215) - http://www.bohemiancoding.com/sketch -->
    <title>73FEBB1E-A445-4975-9A19-8FD2B05A3CFB</title>
    <desc>Created with sketchtool.</desc>
    <defs></defs>
    <g id="startHere" stroke="none" stroke-width="1" fill="none" fill-rule="evenodd">
        <g id="申请入住-copy" transform="translate(-397.000000, -18.000000)">
            <g id="em-new" transform="translate(397.000000, 18.000000)">
                <rect id="bg" fill="#F6A623" x="0" y="0" width="30" height="14" rx="1"></rect>
                <path d="M3.78,4.279 L5.184,4.279 L5.184,5.267 L5.21,5.293 C5.43533446,4.92033147 5.72999818,4.62783439 6.094,4.4155 C6.45800182,4.2031656 6.86099779,4.097 7.303,4.097 C8.03967035,4.097 8.62033121,4.28766476 9.045,4.669 C9.46966879,5.05033524 9.682,5.62232952 9.682,6.385 L9.682,11 L8.2,11 L8.2,6.775 C8.18266658,6.24633069 8.07000104,5.86283452 7.862,5.6245 C7.65399896,5.38616547 7.32900221,5.267 6.887,5.267 C6.63566541,5.267 6.41033433,5.31249954 6.211,5.4035 C6.01166567,5.49450045 5.84266736,5.62016586 5.704,5.7805 C5.56533264,5.94083413 5.45700039,6.12933225 5.379,6.346 C5.30099961,6.56266775 5.262,6.79233212 5.262,7.035 L5.262,11 L3.78,11 L3.78,4.279 Z M15.857,7.048 C15.8396666,6.81399883 15.7898337,6.58866775 15.7075,6.372 C15.6251663,6.15533225 15.5125007,5.96683413 15.3695,5.8065 C15.2264993,5.64616586 15.0531677,5.51616716 14.8495,5.4165 C14.6458323,5.31683283 14.4183346,5.267 14.167,5.267 C13.9069987,5.267 13.6708344,5.31249954 13.4585,5.4035 C13.2461656,5.49450045 13.0641674,5.62016586 12.9125,5.7805 C12.7608326,5.94083413 12.6395005,6.12933225 12.5485,6.346 C12.4574995,6.56266775 12.4076667,6.79666541 12.399,7.048 L15.857,7.048 Z M12.399,8.023 C12.399,8.2830013 12.435833,8.53433212 12.5095,8.777 C12.583167,9.01966788 12.6936659,9.23199909 12.841,9.414 C12.9883341,9.59600091 13.1746655,9.74116612 13.4,9.8495 C13.6253345,9.95783387 13.8939984,10.012 14.206,10.012 C14.6393355,10.012 14.9881653,9.91883426 15.2525,9.7325 C15.5168347,9.54616573 15.7139993,9.26666853 15.844,8.894 L17.248,8.894 C17.1699996,9.25800182 17.0356676,9.58299857 16.845,9.869 C16.6543324,10.1550014 16.424668,10.395499 16.156,10.5905 C15.887332,10.785501 15.5861683,10.9328328 15.2525,11.0325 C14.9188317,11.1321672 14.5700018,11.182 14.206,11.182 C13.6773307,11.182 13.2093354,11.0953342 12.802,10.922 C12.3946646,10.7486658 12.0501681,10.5060016 11.7685,10.194 C11.4868319,9.88199844 11.2745007,9.5093355 11.1315,9.076 C10.9884993,8.6426645 10.917,8.1660026 10.917,7.646 C10.917,7.16933095 10.9928326,6.71650214 11.1445,6.2875 C11.2961674,5.85849785 11.5128319,5.48150162 11.7945,5.1565 C12.0761681,4.83149837 12.4163313,4.57366762 12.815,4.383 C13.2136687,4.19233238 13.6643308,4.097 14.167,4.097 C14.6956693,4.097 15.1701646,4.20749889 15.5905,4.4285 C16.0108354,4.6495011 16.3596653,4.94199818 16.637,5.306 C16.9143347,5.67000182 17.1158327,6.0881643 17.2415,6.5605 C17.3671673,7.03283569 17.399667,7.52033082 17.339,8.023 L12.399,8.023 Z M17.859,4.279 L19.432,4.279 L20.745,9.297 L20.771,9.297 L22.032,4.279 L23.527,4.279 L24.736,9.297 L24.762,9.297 L26.127,4.279 L27.635,4.279 L25.529,11 L24.008,11 L22.76,6.008 L22.734,6.008 L21.499,11 L19.939,11 L17.859,4.279 Z" id="new" fill="#FFFFFF"></path>
            </g>
        </g>
    </g>
</svg>