<?xml version="1.0" encoding="UTF-8" standalone="no"?>
<svg width="368px" height="209px" viewBox="0 0 368 209" version="1.1" xmlns="http://www.w3.org/2000/svg" xmlns:xlink="http://www.w3.org/1999/xlink">
    <!-- Generator: Sketch 3.8.2 (29753) - http://www.bohemiancoding.com/sketch -->
    <title>login_icons_tiny</title>
    <desc>Created with Sketch.</desc>
    <defs>
        <path d="M48,24 C48,37.254 37.2552,48 24,48 C10.746,48 0,37.254 0,24 C0,10.7436 10.746,0 24,0 C37.2552,0 48,10.7436 48,24 L48,24 Z" id="path-1"></path>
        <mask id="mask-2" maskContentUnits="userSpaceOnUse" maskUnits="objectBoundingBox" x="0" y="0" width="48" height="48" fill="white">
            <use xlink:href="#path-1"></use>
        </mask>
        <path d="M48,24 C48,37.254 37.2552,48 24,48 C10.746,48 0,37.254 0,24 C0,10.7436 10.746,0 24,0 C37.2552,0 48,10.7436 48,24 L48,24 Z" id="path-3"></path>
        <mask id="mask-4" maskContentUnits="userSpaceOnUse" maskUnits="objectBoundingBox" x="0" y="0" width="48" height="48" fill="white">
            <use xlink:href="#path-3"></use>
        </mask>
        <path d="M48,24 C48,37.254 37.2552,48 24,48 C10.746,48 0,37.254 0,24 C0,10.7436 10.746,0 24,0 C37.2552,0 48,10.7436 48,24 L48,24 Z" id="path-5"></path>
        <mask id="mask-6" maskContentUnits="userSpaceOnUse" maskUnits="objectBoundingBox" x="0" y="0" width="48" height="48" fill="white">
            <use xlink:href="#path-5"></use>
        </mask>
        <path d="M48,24 C48,37.254 37.2552,48 24,48 C10.746,48 0,37.254 0,24 C0,10.7436 10.746,0 24,0 C37.2552,0 48,10.7436 48,24 L48,24 Z" id="path-7"></path>
        <mask id="mask-8" maskContentUnits="userSpaceOnUse" maskUnits="objectBoundingBox" x="0" y="0" width="48" height="48" fill="white">
            <use xlink:href="#path-7"></use>
        </mask>
        <path d="M48,24 C48,37.254 37.2552,48 24,48 C10.746,48 0,37.254 0,24 C0,10.7436 10.746,0 24,0 C37.2552,0 48,10.7436 48,24 L48,24 Z" id="path-9"></path>
        <mask id="mask-10" maskContentUnits="userSpaceOnUse" maskUnits="objectBoundingBox" x="0" y="0" width="48" height="48" fill="white">
            <use xlink:href="#path-9"></use>
        </mask>
    </defs>
    <g id="slice" stroke="none" stroke-width="1" fill="none" fill-rule="evenodd">
        <g id="Desktop-HD" transform="translate(-514.000000, -103.000000)">
            <g id="Group-8" transform="translate(514.000000, 103.000000)">
                <g id="Group">
                    <use id="Fill-5-Copy-4" stroke="#C90000" mask="url(#mask-2)" stroke-width="4" xlink:href="#path-1"></use>
                    <path d="M38.0784,20.4878049 C37.5228,20.4878049 37.0704,20.0487805 37.0704,19.5043902 C37.0704,15.4407805 33.6816,12.1346341 29.514,12.1346341 C28.9584,12.1346341 28.506,11.694439 28.506,11.1512195 C28.506,10.6091707 28.9584,10.1666341 29.514,10.1666341 C34.794,10.1666341 39.0888,14.3566829 39.0888,19.5043902 C39.0888,20.0487805 38.6364,20.4878049 38.0784,20.4878049 L38.0784,20.4878049 L38.0784,20.4878049 Z M29.1144,16.4440976 C30.966,16.4440976 32.4744,17.9157073 32.4744,19.7221463 C32.4744,20.1283902 32.1348,20.4597073 31.7184,20.4597073 C31.2984,20.4597073 30.96,20.1283902 30.96,19.7221463 C30.96,18.7293659 30.132,17.921561 29.1144,17.921561 C28.6968,17.921561 28.3584,17.5914146 28.3584,17.1816585 C28.3584,16.7754146 28.6968,16.4440976 29.1144,16.4440976 L29.1144,16.4440976 L29.1144,16.4440976 Z M29.0916,19.6565854 C30.3324,20.5639024 29.0028,23.3877073 29.0028,23.3877073 C29.0028,23.3877073 33.2748,23.171122 34.2972,25.6437073 C36.4008,30.7258537 27.624,37.1016585 19.4808,37.1016585 C11.3412,37.1016585 8.3136,32.9795122 8.3136,29.3771707 C8.3136,25.7748293 9.96,22.782439 13.2084,19.4388293 C16.2936,16.2661463 18.9552,14.9994146 20.6388,15.4478049 C22.1076,15.8364878 21.5712,19.0934634 21.6168,20.915122 C24.4656,19.1367805 27.8472,18.7445854 29.0916,19.6565854 L29.0916,19.6565854 L29.0916,19.6565854 Z M19.7136,23.8033171 C14.346,24.318439 10.2564,27.3529756 10.584,30.5783415 C10.9104,33.8060488 15.5256,36.0023415 20.8956,35.4837073 C26.2632,34.9685854 30.3504,31.9340488 30.0252,28.7086829 C29.6988,25.4833171 25.0812,23.2870244 19.7136,23.8033171 L19.7136,23.8033171 L19.7136,23.8033171 Z M21.2232,33.564878 C18.9636,34.896 16.2084,34.4874146 15.0708,32.6505366 C13.9308,30.8136585 14.8416,28.2450732 17.1012,26.9127805 C19.3608,25.5804878 22.116,25.9902439 23.2536,27.827122 C24.3912,29.664 23.484,32.2325854 21.2232,33.564878 L21.2232,33.564878 L21.2232,33.564878 Z M19.6824,29.9320976 C19.3056,29.3221463 18.3816,29.1898537 17.6184,29.6382439 C16.8576,30.0866341 16.548,30.9459512 16.9272,31.5582439 C17.3064,32.1693659 18.2292,32.2993171 18.9912,31.8509268 C19.7532,31.4037073 20.0616,30.5432195 19.6824,29.9320976 L19.6824,29.9320976 L19.6824,29.9320976 Z M33.726,19.4165854 C33.726,17.105561 31.7964,15.2230244 29.4264,15.2230244 C28.938,15.2230244 28.5432,14.8378537 28.5432,14.3637073 C28.5432,13.8872195 28.938,13.500878 29.4264,13.500878 C32.7708,13.500878 35.4924,16.1549268 35.4924,19.4165854 C35.4924,19.8942439 35.0952,20.2794146 34.6092,20.2794146 C34.1208,20.2794146 33.726,19.8942439 33.726,19.4165854 L33.726,19.4165854 L33.726,19.4165854 Z" id="Fill-2" fill="#C90000"></path>
                </g>
                <g id="Group-2" transform="translate(80.000000, 0.000000)">
                    <use id="Fill-5-Copy-3" stroke="#2A9CD5" mask="url(#mask-4)" stroke-width="4" xlink:href="#path-3"></use>
                    <path d="M20.0263415,35.4837073 L18.5851707,35.4837073 C17.1276098,35.3361951 15.1162927,35.2343415 14.4934634,34.2169756 C14.2780488,33.8645854 14.2909268,33.0837073 14.5133659,32.688 C14.8435122,32.1038049 15.595122,31.9410732 16.4673171,31.8204878 C15.608,31.1414634 14.8107317,30.3980488 14.3494634,29.3069268 C14.2757073,29.1313171 14.1925854,28.9463415 14.1235122,28.7625366 C14.0520976,28.5763902 14.0251707,28.3797073 13.9162927,28.1994146 C13.7278049,28.3492683 13.6669268,28.625561 13.5463415,28.8433171 C13.2981463,29.1348293 12.9047805,29.6277073 12.4786341,29.8290732 C12.3299512,29.9016585 12.0665366,30.0081951 11.9014634,29.9707317 C11.5795122,29.8969756 11.5139512,29.1957073 11.4507317,28.782439 L11.4507317,27.7580488 C11.785561,25.1157073 13.1869268,23.5153171 14.8833171,22.2029268 C14.6152195,21.4829268 14.9348293,20.670439 15.2743415,20.2314146 C15.2614634,19.8087805 15.4183415,19.2257561 15.686439,18.9447805 C15.7098537,17.5480976 16.1079024,16.416 16.6932683,15.504 C17.7492683,13.854439 18.950439,12.5139512 20.9921951,11.8606829 C23.0292683,11.2097561 25.9373659,11.2682927 27.817561,12.0632195 C28.8232195,12.4846829 29.6228293,12.9201951 30.2866341,13.571122 C31.3285854,14.5896585 31.9361951,15.7978537 32.3646829,17.4345366 C32.4325854,17.6979512 32.491122,17.9742439 32.5274146,18.2599024 C32.5625366,18.5244878 32.569561,18.8359024 32.6515122,19.1063415 C32.7545366,19.4388293 33.0870244,19.7432195 33.2263415,20.1506341 C33.464,20.8366829 33.4967805,21.569561 33.1654634,22.1830244 C33.8058537,23.0868293 34.388878,24.0749268 34.9543415,25.3416585 C35.4120976,26.3683902 35.7972683,28.2649756 35.2634146,29.4684878 C35.1334634,29.7623415 34.8197073,30.1674146 34.502439,30.1709268 C34.1383415,30.1779512 33.8842927,29.7623415 33.7016585,29.4883902 C33.4839024,29.1676098 33.3047805,28.8632195 33.145561,28.5412683 C32.8411707,28.9170732 32.7276098,29.4251707 32.5086829,29.8899512 C32.1972683,30.5432195 31.7465366,31.1157073 31.2524878,31.601561 C31.7945366,31.8989268 32.4056585,32.1611707 32.8973659,32.5463415 C33.211122,32.7921951 33.6314146,33.137561 33.5166829,33.7147317 C33.451122,34.0261463 33.1678049,34.337561 32.9395122,34.4979512 C31.4023415,35.5867317 27.7719024,35.4474146 25.7418537,34.7812683 C25.5475122,34.7157073 25.3449756,34.6630244 25.1447805,34.5986341 C24.9598049,34.5389268 24.7642927,34.4241951 24.5898537,34.398439 C24.4446829,34.3738537 24.2199024,34.3890732 24.0349268,34.3785366 C23.8323902,34.3633171 23.593561,34.3223415 23.4999024,34.337561 C23.3980488,34.3539512 23.2540488,34.4897561 23.1299512,34.5588293 C22.2612683,35.0505366 21.2930732,35.4450732 20.0263415,35.4837073" id="Fill-4" fill="#2A9CD5"></path>
                </g>
                <g id="Group-4" transform="translate(240.000000, 0.000000)">
                    <use id="Fill-5" stroke="#22A049" mask="url(#mask-6)" stroke-width="4" xlink:href="#path-5"></use>
                    <path d="M12.6888,16.1424 L33.8844,16.1424 L33.8844,13.2 L12.6888,13.2 L12.6888,16.1424 L12.6888,16.1424 Z M12,33.5904 L34.5744,33.5904 L34.5744,30.648 L28.5168,30.648 L30.666,27.5916 L27.8388,26.5788 L32.1384,26.5788 L32.1384,17.9592 L14.436,17.9592 L14.436,26.5788 L18.1728,26.5788 L15.8148,27.9348 C16.6824,29.0172 17.3832,29.9208 17.9184,30.648 L12,30.648 L12,33.5904 L12,33.5904 L12,33.5904 Z M17.6544,20.7624 L28.9188,20.7624 L28.9188,23.7744 L17.6544,23.7744 L17.6544,20.7624 L17.6544,20.7624 Z M18.9312,26.5788 L27.15,26.5788 C26.3508,27.9984 25.5384,29.3544 24.7116,30.648 L20.0112,30.648 L21.4476,29.7984 C20.9412,29.1 20.1024,28.0272 18.9312,26.5788 L18.9312,26.5788 L18.9312,26.5788 Z" id="Fill-6" fill="#22A049"></path>
                </g>
                <g id="Group-3" transform="translate(160.000000, 0.000000)">
                    <use id="Fill-5-Copy" stroke="#00BB00" mask="url(#mask-8)" stroke-width="4" xlink:href="#path-7"></use>
                    <path d="M18.128058,17.4539565 C18.128058,17.0803349 18.0141503,16.7796194 17.7863318,16.5518009 C17.5585103,16.3239794 17.2577948,16.2100717 16.8841732,16.2100717 C16.4923242,16.2100717 16.146045,16.3262574 15.8453234,16.558635 C15.5446018,16.7910095 15.3942456,17.089447 15.3942456,17.4539565 C15.3942456,17.8093539 15.5446018,18.1032384 15.8453234,18.3356129 C16.146045,18.5679874 16.4923242,18.6841732 16.8841732,18.6841732 C17.2577948,18.6841732 17.5585103,18.5725435 17.7863318,18.3492811 C18.0141503,18.1260187 18.128058,17.8275812 18.128058,17.4539565 L18.128058,17.4539565 Z M28.2841716,24.3841724 C28.2841716,24.1290175 28.1679859,23.9012021 27.9356114,23.7007201 C27.7032338,23.500238 27.4047963,23.4000015 27.0402868,23.4000015 C26.794241,23.4000015 26.5687037,23.5025191 26.3636686,23.7075542 C26.1586304,23.9125923 26.0561129,24.1381297 26.0561129,24.3841724 C26.0561129,24.6393303 26.1586304,24.8694237 26.3636686,25.0744619 C26.5687037,25.279497 26.794241,25.3820145 27.0402868,25.3820145 C27.4047963,25.3820145 27.7032338,25.281775 27.9356114,25.081296 C28.1679859,24.8808139 28.2841716,24.6484424 28.2841716,24.3841724 L28.2841716,24.3841724 Z M25.0582738,17.4539565 C25.0582738,17.0803349 24.9466442,16.7796194 24.7233818,16.5518009 C24.5001194,16.3239794 24.2016789,16.2100717 23.8280572,16.2100717 C23.4362082,16.2100717 23.0899291,16.3262574 22.7892075,16.558635 C22.4884859,16.7910095 22.3381297,17.089447 22.3381297,17.4539565 C22.3381297,17.8093539 22.4884859,18.1032384 22.7892075,18.3356129 C23.0899291,18.5679874 23.4362082,18.6841732 23.8280572,18.6841732 C24.2016789,18.6841732 24.5001194,18.5725435 24.7233818,18.3492811 C24.9466442,18.1260187 25.0582738,17.8275812 25.0582738,17.4539565 L25.0582738,17.4539565 Z M33.7381281,24.3841724 C33.7381281,24.1290175 33.6196644,23.9012021 33.3827338,23.7007201 C33.1458001,23.500238 32.8496407,23.4000015 32.4942433,23.4000015 C32.2481975,23.4000015 32.0226602,23.5025191 31.8176251,23.7075542 C31.6125869,23.9125923 31.5100694,24.1381297 31.5100694,24.3841724 C31.5100694,24.6393303 31.6125869,24.8694237 31.8176251,25.0744619 C32.0226602,25.279497 32.2481975,25.3820145 32.4942433,25.3820145 C32.8496407,25.3820145 33.1458001,25.281775 33.3827338,25.081296 C33.6196644,24.8808139 33.7381281,24.6484424 33.7381281,24.3841724 L33.7381281,24.3841724 Z M30.1021571,18.9575553 C29.8196628,18.9211037 29.5007201,18.9028795 29.1453227,18.9028795 C27.6052662,18.9028795 26.188254,19.2537147 24.8942433,19.9553974 C23.6002326,20.6570801 22.5818974,21.6070682 21.8392071,22.8053955 C21.0965198,24.0037228 20.7251793,25.3136613 20.7251793,26.735251 C20.7251793,27.4460458 20.8299748,28.1386072 21.039569,28.8129504 C20.7206201,28.8402868 20.4107925,28.8539581 20.1100709,28.8539581 C19.8731403,28.8539581 19.6453249,28.847124 19.4266186,28.8334527 C19.2079123,28.8197845 18.9573166,28.790167 18.6748192,28.7446034 C18.3923249,28.6990397 18.1895679,28.6671472 18.066545,28.6489199 C17.9435252,28.6306957 17.6952044,28.5828539 17.3215828,28.5053947 C16.947958,28.4279386 16.7201426,28.3800969 16.6381304,28.3618696 L13.179856,30.0978429 L14.164029,27.1179847 C11.5213296,25.2680976 10.2,23.0355042 10.2,20.4201434 C10.2,18.88009 10.64424,17.4630778 11.5327339,16.1690671 C12.4212274,14.8750534 13.6240926,13.8567182 15.1413657,13.1140309 C16.6586388,12.3713406 18.3148596,12 20.1100709,12 C21.7139154,12 23.228889,12.3007185 24.6550347,12.9021587 C26.0811804,13.5036018 27.2749332,14.3351293 28.2363299,15.3967624 C29.1977266,16.4583986 29.8196628,17.6453173 30.1021571,18.9575553 L30.1021571,18.9575553 Z M38.1942426,26.6258993 C38.1942426,27.6920916 37.8821369,28.7104268 37.2579134,29.6809355 C36.6336899,30.6514443 35.7884943,31.5330885 34.7223021,32.3258995 L35.4740984,34.8 L32.7539542,33.3100722 C31.3870435,33.6472441 30.3937666,33.8158273 29.7740992,33.8158273 C28.2340427,33.8158273 26.8170305,33.4946077 25.5230198,32.8521584 C24.2290091,32.2097091 23.2106739,31.3371747 22.4679836,30.2345339 C21.7252963,29.1318901 21.3539558,27.9290252 21.3539558,26.6258993 C21.3539558,25.3227765 21.7252963,24.1199115 22.4679836,23.0172677 C23.2106739,21.9146239 24.2290091,21.0420889 25.5230198,20.3996411 C26.8170305,19.7571934 28.2340427,19.4359725 29.7740992,19.4359725 C31.2412525,19.4359725 32.6218161,19.7571934 33.9158268,20.3996411 C35.2098375,21.0420889 36.246397,21.916902 37.0255389,23.0241018 C37.8046777,24.1313017 38.1942426,25.3318886 38.1942426,26.6258993 L38.1942426,26.6258993 Z" id="Page-1" fill="#00BB00"></path>
                </g>
                <g id="Group-5" transform="translate(320.000000, 0.000000)">
                    <use id="Fill-5-Copy-2" stroke="#337AC5" mask="url(#mask-10)" stroke-width="4" xlink:href="#path-9"></use>
                    <path d="M14.0172,32.0496 C12.0156,29.778 10.8,26.7972 10.8,23.5344 C10.8,17.0952 15.5232,11.7588 21.6936,10.8 L21.6936,18.816 C21.6936,24.4704 18.6,29.412 14.0172,32.0496 L14.0172,32.0496 L14.0172,32.0496 Z M33.504,32.0496 C28.9224,29.412 25.8276,24.4704 25.8276,18.816 L25.8276,10.8 C31.998,11.7588 36.7188,17.0952 36.7188,23.5344 C36.7188,26.7972 35.5032,29.778 33.504,32.0496 L33.504,32.0496 L33.504,32.0496 Z M23.6904,36.4236 C21.3552,36.4236 19.1664,35.7996 17.2764,34.7124 C20.0388,32.8236 22.2852,30.2352 23.76,27.204 C25.2228,30.2112 27.4452,32.7828 30.1776,34.6704 C28.2708,35.784 26.0556,36.4236 23.6904,36.4236 L23.6904,36.4236 L23.6904,36.4236 Z" id="Fill-8" fill="#337AC5"></path>
                </g>
                <g id="Group-Copy" transform="translate(0.000000, 80.000000)">
                    <path d="M48,24 C48,37.254 37.2552,48 24,48 C10.746,48 0,37.254 0,24 C0,10.7436 10.746,0 24,0 C37.2552,0 48,10.7436 48,24 L48,24 Z" id="Fill-5-Copy-4" fill="#C90000"></path>
                    <path d="M38.0784,20.4878049 C37.5228,20.4878049 37.0704,20.0487805 37.0704,19.5043902 C37.0704,15.4407805 33.6816,12.1346341 29.514,12.1346341 C28.9584,12.1346341 28.506,11.694439 28.506,11.1512195 C28.506,10.6091707 28.9584,10.1666341 29.514,10.1666341 C34.794,10.1666341 39.0888,14.3566829 39.0888,19.5043902 C39.0888,20.0487805 38.6364,20.4878049 38.0784,20.4878049 L38.0784,20.4878049 L38.0784,20.4878049 Z M29.1144,16.4440976 C30.966,16.4440976 32.4744,17.9157073 32.4744,19.7221463 C32.4744,20.1283902 32.1348,20.4597073 31.7184,20.4597073 C31.2984,20.4597073 30.96,20.1283902 30.96,19.7221463 C30.96,18.7293659 30.132,17.921561 29.1144,17.921561 C28.6968,17.921561 28.3584,17.5914146 28.3584,17.1816585 C28.3584,16.7754146 28.6968,16.4440976 29.1144,16.4440976 L29.1144,16.4440976 L29.1144,16.4440976 Z M29.0916,19.6565854 C30.3324,20.5639024 29.0028,23.3877073 29.0028,23.3877073 C29.0028,23.3877073 33.2748,23.171122 34.2972,25.6437073 C36.4008,30.7258537 27.624,37.1016585 19.4808,37.1016585 C11.3412,37.1016585 8.3136,32.9795122 8.3136,29.3771707 C8.3136,25.7748293 9.96,22.782439 13.2084,19.4388293 C16.2936,16.2661463 18.9552,14.9994146 20.6388,15.4478049 C22.1076,15.8364878 21.5712,19.0934634 21.6168,20.915122 C24.4656,19.1367805 27.8472,18.7445854 29.0916,19.6565854 L29.0916,19.6565854 L29.0916,19.6565854 Z M19.7136,23.8033171 C14.346,24.318439 10.2564,27.3529756 10.584,30.5783415 C10.9104,33.8060488 15.5256,36.0023415 20.8956,35.4837073 C26.2632,34.9685854 30.3504,31.9340488 30.0252,28.7086829 C29.6988,25.4833171 25.0812,23.2870244 19.7136,23.8033171 L19.7136,23.8033171 L19.7136,23.8033171 Z M21.2232,33.564878 C18.9636,34.896 16.2084,34.4874146 15.0708,32.6505366 C13.9308,30.8136585 14.8416,28.2450732 17.1012,26.9127805 C19.3608,25.5804878 22.116,25.9902439 23.2536,27.827122 C24.3912,29.664 23.484,32.2325854 21.2232,33.564878 L21.2232,33.564878 L21.2232,33.564878 Z M19.6824,29.9320976 C19.3056,29.3221463 18.3816,29.1898537 17.6184,29.6382439 C16.8576,30.0866341 16.548,30.9459512 16.9272,31.5582439 C17.3064,32.1693659 18.2292,32.2993171 18.9912,31.8509268 C19.7532,31.4037073 20.0616,30.5432195 19.6824,29.9320976 L19.6824,29.9320976 L19.6824,29.9320976 Z M33.726,19.4165854 C33.726,17.105561 31.7964,15.2230244 29.4264,15.2230244 C28.938,15.2230244 28.5432,14.8378537 28.5432,14.3637073 C28.5432,13.8872195 28.938,13.500878 29.4264,13.500878 C32.7708,13.500878 35.4924,16.1549268 35.4924,19.4165854 C35.4924,19.8942439 35.0952,20.2794146 34.6092,20.2794146 C34.1208,20.2794146 33.726,19.8942439 33.726,19.4165854 L33.726,19.4165854 L33.726,19.4165854 Z" id="Fill-2" fill="#FFFFFF"></path>
                </g>
                <g id="Group-2-Copy-3" transform="translate(80.000000, 80.000000)">
                    <path d="M48,24 C48,37.254 37.2552,48 24,48 C10.746,48 0,37.254 0,24 C0,10.7436 10.746,0 24,0 C37.2552,0 48,10.7436 48,24 L48,24 Z" id="Fill-5-Copy-3" fill="#2A9CD5"></path>
                    <path d="M20.0263415,35.4837073 L18.5851707,35.4837073 C17.1276098,35.3361951 15.1162927,35.2343415 14.4934634,34.2169756 C14.2780488,33.8645854 14.2909268,33.0837073 14.5133659,32.688 C14.8435122,32.1038049 15.595122,31.9410732 16.4673171,31.8204878 C15.608,31.1414634 14.8107317,30.3980488 14.3494634,29.3069268 C14.2757073,29.1313171 14.1925854,28.9463415 14.1235122,28.7625366 C14.0520976,28.5763902 14.0251707,28.3797073 13.9162927,28.1994146 C13.7278049,28.3492683 13.6669268,28.625561 13.5463415,28.8433171 C13.2981463,29.1348293 12.9047805,29.6277073 12.4786341,29.8290732 C12.3299512,29.9016585 12.0665366,30.0081951 11.9014634,29.9707317 C11.5795122,29.8969756 11.5139512,29.1957073 11.4507317,28.782439 L11.4507317,27.7580488 C11.785561,25.1157073 13.1869268,23.5153171 14.8833171,22.2029268 C14.6152195,21.4829268 14.9348293,20.670439 15.2743415,20.2314146 C15.2614634,19.8087805 15.4183415,19.2257561 15.686439,18.9447805 C15.7098537,17.5480976 16.1079024,16.416 16.6932683,15.504 C17.7492683,13.854439 18.950439,12.5139512 20.9921951,11.8606829 C23.0292683,11.2097561 25.9373659,11.2682927 27.817561,12.0632195 C28.8232195,12.4846829 29.6228293,12.9201951 30.2866341,13.571122 C31.3285854,14.5896585 31.9361951,15.7978537 32.3646829,17.4345366 C32.4325854,17.6979512 32.491122,17.9742439 32.5274146,18.2599024 C32.5625366,18.5244878 32.569561,18.8359024 32.6515122,19.1063415 C32.7545366,19.4388293 33.0870244,19.7432195 33.2263415,20.1506341 C33.464,20.8366829 33.4967805,21.569561 33.1654634,22.1830244 C33.8058537,23.0868293 34.388878,24.0749268 34.9543415,25.3416585 C35.4120976,26.3683902 35.7972683,28.2649756 35.2634146,29.4684878 C35.1334634,29.7623415 34.8197073,30.1674146 34.502439,30.1709268 C34.1383415,30.1779512 33.8842927,29.7623415 33.7016585,29.4883902 C33.4839024,29.1676098 33.3047805,28.8632195 33.145561,28.5412683 C32.8411707,28.9170732 32.7276098,29.4251707 32.5086829,29.8899512 C32.1972683,30.5432195 31.7465366,31.1157073 31.2524878,31.601561 C31.7945366,31.8989268 32.4056585,32.1611707 32.8973659,32.5463415 C33.211122,32.7921951 33.6314146,33.137561 33.5166829,33.7147317 C33.451122,34.0261463 33.1678049,34.337561 32.9395122,34.4979512 C31.4023415,35.5867317 27.7719024,35.4474146 25.7418537,34.7812683 C25.5475122,34.7157073 25.3449756,34.6630244 25.1447805,34.5986341 C24.9598049,34.5389268 24.7642927,34.4241951 24.5898537,34.398439 C24.4446829,34.3738537 24.2199024,34.3890732 24.0349268,34.3785366 C23.8323902,34.3633171 23.593561,34.3223415 23.4999024,34.337561 C23.3980488,34.3539512 23.2540488,34.4897561 23.1299512,34.5588293 C22.2612683,35.0505366 21.2930732,35.4450732 20.0263415,35.4837073" id="Fill-4" fill="#FFFFFF"></path>
                </g>
                <g id="Group-4-Copy" transform="translate(240.000000, 80.000000)">
                    <path d="M48,24 C48,37.254 37.2552,48 24,48 C10.746,48 0,37.254 0,24 C0,10.7436 10.746,0 24,0 C37.2552,0 48,10.7436 48,24 L48,24 Z" id="Fill-5" fill="#22A049"></path>
                    <path d="M12.6888,16.1424 L33.8844,16.1424 L33.8844,13.2 L12.6888,13.2 L12.6888,16.1424 L12.6888,16.1424 Z M12,33.5904 L34.5744,33.5904 L34.5744,30.648 L28.5168,30.648 L30.666,27.5916 L27.8388,26.5788 L32.1384,26.5788 L32.1384,17.9592 L14.436,17.9592 L14.436,26.5788 L18.1728,26.5788 L15.8148,27.9348 C16.6824,29.0172 17.3832,29.9208 17.9184,30.648 L12,30.648 L12,33.5904 L12,33.5904 L12,33.5904 Z M17.6544,20.7624 L28.9188,20.7624 L28.9188,23.7744 L17.6544,23.7744 L17.6544,20.7624 L17.6544,20.7624 Z M18.9312,26.5788 L27.15,26.5788 C26.3508,27.9984 25.5384,29.3544 24.7116,30.648 L20.0112,30.648 L21.4476,29.7984 C20.9412,29.1 20.1024,28.0272 18.9312,26.5788 L18.9312,26.5788 L18.9312,26.5788 Z" id="Fill-6" fill="#FFFFFF"></path>
                </g>
                <g id="Group-3-Copy" transform="translate(160.000000, 80.000000)">
                    <path d="M48,24 C48,37.254 37.2552,48 24,48 C10.746,48 0,37.254 0,24 C0,10.7436 10.746,0 24,0 C37.2552,0 48,10.7436 48,24 L48,24 Z" id="Fill-5-Copy" fill="#00BB00"></path>
                    <path d="M18.128058,17.4539565 C18.128058,17.0803349 18.0141503,16.7796194 17.7863318,16.5518009 C17.5585103,16.3239794 17.2577948,16.2100717 16.8841732,16.2100717 C16.4923242,16.2100717 16.146045,16.3262574 15.8453234,16.558635 C15.5446018,16.7910095 15.3942456,17.089447 15.3942456,17.4539565 C15.3942456,17.8093539 15.5446018,18.1032384 15.8453234,18.3356129 C16.146045,18.5679874 16.4923242,18.6841732 16.8841732,18.6841732 C17.2577948,18.6841732 17.5585103,18.5725435 17.7863318,18.3492811 C18.0141503,18.1260187 18.128058,17.8275812 18.128058,17.4539565 L18.128058,17.4539565 Z M28.2841716,24.3841724 C28.2841716,24.1290175 28.1679859,23.9012021 27.9356114,23.7007201 C27.7032338,23.500238 27.4047963,23.4000015 27.0402868,23.4000015 C26.794241,23.4000015 26.5687037,23.5025191 26.3636686,23.7075542 C26.1586304,23.9125923 26.0561129,24.1381297 26.0561129,24.3841724 C26.0561129,24.6393303 26.1586304,24.8694237 26.3636686,25.0744619 C26.5687037,25.279497 26.794241,25.3820145 27.0402868,25.3820145 C27.4047963,25.3820145 27.7032338,25.281775 27.9356114,25.081296 C28.1679859,24.8808139 28.2841716,24.6484424 28.2841716,24.3841724 L28.2841716,24.3841724 Z M25.0582738,17.4539565 C25.0582738,17.0803349 24.9466442,16.7796194 24.7233818,16.5518009 C24.5001194,16.3239794 24.2016789,16.2100717 23.8280572,16.2100717 C23.4362082,16.2100717 23.0899291,16.3262574 22.7892075,16.558635 C22.4884859,16.7910095 22.3381297,17.089447 22.3381297,17.4539565 C22.3381297,17.8093539 22.4884859,18.1032384 22.7892075,18.3356129 C23.0899291,18.5679874 23.4362082,18.6841732 23.8280572,18.6841732 C24.2016789,18.6841732 24.5001194,18.5725435 24.7233818,18.3492811 C24.9466442,18.1260187 25.0582738,17.8275812 25.0582738,17.4539565 L25.0582738,17.4539565 Z M33.7381281,24.3841724 C33.7381281,24.1290175 33.6196644,23.9012021 33.3827338,23.7007201 C33.1458001,23.500238 32.8496407,23.4000015 32.4942433,23.4000015 C32.2481975,23.4000015 32.0226602,23.5025191 31.8176251,23.7075542 C31.6125869,23.9125923 31.5100694,24.1381297 31.5100694,24.3841724 C31.5100694,24.6393303 31.6125869,24.8694237 31.8176251,25.0744619 C32.0226602,25.279497 32.2481975,25.3820145 32.4942433,25.3820145 C32.8496407,25.3820145 33.1458001,25.281775 33.3827338,25.081296 C33.6196644,24.8808139 33.7381281,24.6484424 33.7381281,24.3841724 L33.7381281,24.3841724 Z M30.1021571,18.9575553 C29.8196628,18.9211037 29.5007201,18.9028795 29.1453227,18.9028795 C27.6052662,18.9028795 26.188254,19.2537147 24.8942433,19.9553974 C23.6002326,20.6570801 22.5818974,21.6070682 21.8392071,22.8053955 C21.0965198,24.0037228 20.7251793,25.3136613 20.7251793,26.735251 C20.7251793,27.4460458 20.8299748,28.1386072 21.039569,28.8129504 C20.7206201,28.8402868 20.4107925,28.8539581 20.1100709,28.8539581 C19.8731403,28.8539581 19.6453249,28.847124 19.4266186,28.8334527 C19.2079123,28.8197845 18.9573166,28.790167 18.6748192,28.7446034 C18.3923249,28.6990397 18.1895679,28.6671472 18.066545,28.6489199 C17.9435252,28.6306957 17.6952044,28.5828539 17.3215828,28.5053947 C16.947958,28.4279386 16.7201426,28.3800969 16.6381304,28.3618696 L13.179856,30.0978429 L14.164029,27.1179847 C11.5213296,25.2680976 10.2,23.0355042 10.2,20.4201434 C10.2,18.88009 10.64424,17.4630778 11.5327339,16.1690671 C12.4212274,14.8750534 13.6240926,13.8567182 15.1413657,13.1140309 C16.6586388,12.3713406 18.3148596,12 20.1100709,12 C21.7139154,12 23.228889,12.3007185 24.6550347,12.9021587 C26.0811804,13.5036018 27.2749332,14.3351293 28.2363299,15.3967624 C29.1977266,16.4583986 29.8196628,17.6453173 30.1021571,18.9575553 L30.1021571,18.9575553 Z M38.1942426,26.6258993 C38.1942426,27.6920916 37.8821369,28.7104268 37.2579134,29.6809355 C36.6336899,30.6514443 35.7884943,31.5330885 34.7223021,32.3258995 L35.4740984,34.8 L32.7539542,33.3100722 C31.3870435,33.6472441 30.3937666,33.8158273 29.7740992,33.8158273 C28.2340427,33.8158273 26.8170305,33.4946077 25.5230198,32.8521584 C24.2290091,32.2097091 23.2106739,31.3371747 22.4679836,30.2345339 C21.7252963,29.1318901 21.3539558,27.9290252 21.3539558,26.6258993 C21.3539558,25.3227765 21.7252963,24.1199115 22.4679836,23.0172677 C23.2106739,21.9146239 24.2290091,21.0420889 25.5230198,20.3996411 C26.8170305,19.7571934 28.2340427,19.4359725 29.7740992,19.4359725 C31.2412525,19.4359725 32.6218161,19.7571934 33.9158268,20.3996411 C35.2098375,21.0420889 36.246397,21.916902 37.0255389,23.0241018 C37.8046777,24.1313017 38.1942426,25.3318886 38.1942426,26.6258993 L38.1942426,26.6258993 Z" id="Page-1" fill="#FFFFFF"></path>
                </g>
                <g id="Group-5-Copy" transform="translate(320.000000, 80.000000)">
                    <path d="M48,24 C48,37.254 37.2552,48 24,48 C10.746,48 0,37.254 0,24 C0,10.7436 10.746,0 24,0 C37.2552,0 48,10.7436 48,24 L48,24 Z" id="Fill-5-Copy-2" fill="#337AC5"></path>
                    <path d="M14.2172,32.2496 C12.2156,29.978 11,26.9972 11,23.7344 C11,17.2952 15.7232,11.9588 21.8936,11 L21.8936,19.016 C21.8936,24.6704 18.8,29.612 14.2172,32.2496 L14.2172,32.2496 L14.2172,32.2496 Z M33.704,32.2496 C29.1224,29.612 26.0276,24.6704 26.0276,19.016 L26.0276,11 C32.198,11.9588 36.9188,17.2952 36.9188,23.7344 C36.9188,26.9972 35.7032,29.978 33.704,32.2496 L33.704,32.2496 L33.704,32.2496 Z M23.8904,36.6236 C21.5552,36.6236 19.3664,35.9996 17.4764,34.9124 C20.2388,33.0236 22.4852,30.4352 23.96,27.404 C25.4228,30.4112 27.6452,32.9828 30.3776,34.8704 C28.4708,35.984 26.2556,36.6236 23.8904,36.6236 L23.8904,36.6236 L23.8904,36.6236 Z" id="Fill-8" fill="#FFFFFF"></path>
                </g>
                <g id="Group-Copy-2" transform="translate(0.000000, 160.000000)">
                    <path d="M48,24 C48,37.254 37.2552,48 24,48 C10.746,48 0,37.254 0,24 C0,10.7436 10.746,0 24,0 C37.2552,0 48,10.7436 48,24 L48,24 Z" id="Fill-5-Copy-4" fill="#CB0000"></path>
                    <path d="M38.0784,20.4878049 C37.5228,20.4878049 37.0704,20.0487805 37.0704,19.5043902 C37.0704,15.4407805 33.6816,12.1346341 29.514,12.1346341 C28.9584,12.1346341 28.506,11.694439 28.506,11.1512195 C28.506,10.6091707 28.9584,10.1666341 29.514,10.1666341 C34.794,10.1666341 39.0888,14.3566829 39.0888,19.5043902 C39.0888,20.0487805 38.6364,20.4878049 38.0784,20.4878049 L38.0784,20.4878049 L38.0784,20.4878049 Z M29.1144,16.4440976 C30.966,16.4440976 32.4744,17.9157073 32.4744,19.7221463 C32.4744,20.1283902 32.1348,20.4597073 31.7184,20.4597073 C31.2984,20.4597073 30.96,20.1283902 30.96,19.7221463 C30.96,18.7293659 30.132,17.921561 29.1144,17.921561 C28.6968,17.921561 28.3584,17.5914146 28.3584,17.1816585 C28.3584,16.7754146 28.6968,16.4440976 29.1144,16.4440976 L29.1144,16.4440976 L29.1144,16.4440976 Z M29.0916,19.6565854 C30.3324,20.5639024 29.0028,23.3877073 29.0028,23.3877073 C29.0028,23.3877073 33.2748,23.171122 34.2972,25.6437073 C36.4008,30.7258537 27.624,37.1016585 19.4808,37.1016585 C11.3412,37.1016585 8.3136,32.9795122 8.3136,29.3771707 C8.3136,25.7748293 9.96,22.782439 13.2084,19.4388293 C16.2936,16.2661463 18.9552,14.9994146 20.6388,15.4478049 C22.1076,15.8364878 21.5712,19.0934634 21.6168,20.915122 C24.4656,19.1367805 27.8472,18.7445854 29.0916,19.6565854 L29.0916,19.6565854 L29.0916,19.6565854 Z M19.7136,23.8033171 C14.346,24.318439 10.2564,27.3529756 10.584,30.5783415 C10.9104,33.8060488 15.5256,36.0023415 20.8956,35.4837073 C26.2632,34.9685854 30.3504,31.9340488 30.0252,28.7086829 C29.6988,25.4833171 25.0812,23.2870244 19.7136,23.8033171 L19.7136,23.8033171 L19.7136,23.8033171 Z M21.2232,33.564878 C18.9636,34.896 16.2084,34.4874146 15.0708,32.6505366 C13.9308,30.8136585 14.8416,28.2450732 17.1012,26.9127805 C19.3608,25.5804878 22.116,25.9902439 23.2536,27.827122 C24.3912,29.664 23.484,32.2325854 21.2232,33.564878 L21.2232,33.564878 L21.2232,33.564878 Z M19.6824,29.9320976 C19.3056,29.3221463 18.3816,29.1898537 17.6184,29.6382439 C16.8576,30.0866341 16.548,30.9459512 16.9272,31.5582439 C17.3064,32.1693659 18.2292,32.2993171 18.9912,31.8509268 C19.7532,31.4037073 20.0616,30.5432195 19.6824,29.9320976 L19.6824,29.9320976 L19.6824,29.9320976 Z M33.726,19.4165854 C33.726,17.105561 31.7964,15.2230244 29.4264,15.2230244 C28.938,15.2230244 28.5432,14.8378537 28.5432,14.3637073 C28.5432,13.8872195 28.938,13.500878 29.4264,13.500878 C32.7708,13.500878 35.4924,16.1549268 35.4924,19.4165854 C35.4924,19.8942439 35.0952,20.2794146 34.6092,20.2794146 C34.1208,20.2794146 33.726,19.8942439 33.726,19.4165854 L33.726,19.4165854 L33.726,19.4165854 Z" id="Fill-2" fill="#FFFFFF"></path>
                </g>
                <g id="Group-2-Copy-4" transform="translate(80.000000, 160.000000)">
                    <path d="M48,24 C48,37.254 37.2552,48 24,48 C10.746,48 0,37.254 0,24 C0,10.7436 10.746,0 24,0 C37.2552,0 48,10.7436 48,24 L48,24 Z" id="Fill-5-Copy-3" fill="#1F9BD7"></path>
                    <path d="M20.0263415,35.4837073 L18.5851707,35.4837073 C17.1276098,35.3361951 15.1162927,35.2343415 14.4934634,34.2169756 C14.2780488,33.8645854 14.2909268,33.0837073 14.5133659,32.688 C14.8435122,32.1038049 15.595122,31.9410732 16.4673171,31.8204878 C15.608,31.1414634 14.8107317,30.3980488 14.3494634,29.3069268 C14.2757073,29.1313171 14.1925854,28.9463415 14.1235122,28.7625366 C14.0520976,28.5763902 14.0251707,28.3797073 13.9162927,28.1994146 C13.7278049,28.3492683 13.6669268,28.625561 13.5463415,28.8433171 C13.2981463,29.1348293 12.9047805,29.6277073 12.4786341,29.8290732 C12.3299512,29.9016585 12.0665366,30.0081951 11.9014634,29.9707317 C11.5795122,29.8969756 11.5139512,29.1957073 11.4507317,28.782439 L11.4507317,27.7580488 C11.785561,25.1157073 13.1869268,23.5153171 14.8833171,22.2029268 C14.6152195,21.4829268 14.9348293,20.670439 15.2743415,20.2314146 C15.2614634,19.8087805 15.4183415,19.2257561 15.686439,18.9447805 C15.7098537,17.5480976 16.1079024,16.416 16.6932683,15.504 C17.7492683,13.854439 18.950439,12.5139512 20.9921951,11.8606829 C23.0292683,11.2097561 25.9373659,11.2682927 27.817561,12.0632195 C28.8232195,12.4846829 29.6228293,12.9201951 30.2866341,13.571122 C31.3285854,14.5896585 31.9361951,15.7978537 32.3646829,17.4345366 C32.4325854,17.6979512 32.491122,17.9742439 32.5274146,18.2599024 C32.5625366,18.5244878 32.569561,18.8359024 32.6515122,19.1063415 C32.7545366,19.4388293 33.0870244,19.7432195 33.2263415,20.1506341 C33.464,20.8366829 33.4967805,21.569561 33.1654634,22.1830244 C33.8058537,23.0868293 34.388878,24.0749268 34.9543415,25.3416585 C35.4120976,26.3683902 35.7972683,28.2649756 35.2634146,29.4684878 C35.1334634,29.7623415 34.8197073,30.1674146 34.502439,30.1709268 C34.1383415,30.1779512 33.8842927,29.7623415 33.7016585,29.4883902 C33.4839024,29.1676098 33.3047805,28.8632195 33.145561,28.5412683 C32.8411707,28.9170732 32.7276098,29.4251707 32.5086829,29.8899512 C32.1972683,30.5432195 31.7465366,31.1157073 31.2524878,31.601561 C31.7945366,31.8989268 32.4056585,32.1611707 32.8973659,32.5463415 C33.211122,32.7921951 33.6314146,33.137561 33.5166829,33.7147317 C33.451122,34.0261463 33.1678049,34.337561 32.9395122,34.4979512 C31.4023415,35.5867317 27.7719024,35.4474146 25.7418537,34.7812683 C25.5475122,34.7157073 25.3449756,34.6630244 25.1447805,34.5986341 C24.9598049,34.5389268 24.7642927,34.4241951 24.5898537,34.398439 C24.4446829,34.3738537 24.2199024,34.3890732 24.0349268,34.3785366 C23.8323902,34.3633171 23.593561,34.3223415 23.4999024,34.337561 C23.3980488,34.3539512 23.2540488,34.4897561 23.1299512,34.5588293 C22.2612683,35.0505366 21.2930732,35.4450732 20.0263415,35.4837073" id="Fill-4" fill="#FFFFFF"></path>
                </g>
                <g id="Group-4-Copy-2" transform="translate(240.000000, 160.000000)">
                    <path d="M48,24 C48,37.254 37.2552,48 24,48 C10.746,48 0,37.254 0,24 C0,10.7436 10.746,0 24,0 C37.2552,0 48,10.7436 48,24 L48,24 Z" id="Fill-5" fill="#16A145"></path>
                    <path d="M12.6888,16.1424 L33.8844,16.1424 L33.8844,13.2 L12.6888,13.2 L12.6888,16.1424 L12.6888,16.1424 Z M12,33.5904 L34.5744,33.5904 L34.5744,30.648 L28.5168,30.648 L30.666,27.5916 L27.8388,26.5788 L32.1384,26.5788 L32.1384,17.9592 L14.436,17.9592 L14.436,26.5788 L18.1728,26.5788 L15.8148,27.9348 C16.6824,29.0172 17.3832,29.9208 17.9184,30.648 L12,30.648 L12,33.5904 L12,33.5904 L12,33.5904 Z M17.6544,20.7624 L28.9188,20.7624 L28.9188,23.7744 L17.6544,23.7744 L17.6544,20.7624 L17.6544,20.7624 Z M18.9312,26.5788 L27.15,26.5788 C26.3508,27.9984 25.5384,29.3544 24.7116,30.648 L20.0112,30.648 L21.4476,29.7984 C20.9412,29.1 20.1024,28.0272 18.9312,26.5788 L18.9312,26.5788 L18.9312,26.5788 Z" id="Fill-6" fill="#FFFFFF"></path>
                </g>
                <g id="Group-3-Copy-2" transform="translate(160.000000, 160.000000)">
                    <path d="M48,24 C48,37.254 37.2552,48 24,48 C10.746,48 0,37.254 0,24 C0,10.7436 10.746,0 24,0 C37.2552,0 48,10.7436 48,24 L48,24 Z" id="Fill-5-Copy" fill="#0AA80A"></path>
                    <path d="M18.128058,17.4539565 C18.128058,17.0803349 18.0141503,16.7796194 17.7863318,16.5518009 C17.5585103,16.3239794 17.2577948,16.2100717 16.8841732,16.2100717 C16.4923242,16.2100717 16.146045,16.3262574 15.8453234,16.558635 C15.5446018,16.7910095 15.3942456,17.089447 15.3942456,17.4539565 C15.3942456,17.8093539 15.5446018,18.1032384 15.8453234,18.3356129 C16.146045,18.5679874 16.4923242,18.6841732 16.8841732,18.6841732 C17.2577948,18.6841732 17.5585103,18.5725435 17.7863318,18.3492811 C18.0141503,18.1260187 18.128058,17.8275812 18.128058,17.4539565 L18.128058,17.4539565 Z M28.2841716,24.3841724 C28.2841716,24.1290175 28.1679859,23.9012021 27.9356114,23.7007201 C27.7032338,23.500238 27.4047963,23.4000015 27.0402868,23.4000015 C26.794241,23.4000015 26.5687037,23.5025191 26.3636686,23.7075542 C26.1586304,23.9125923 26.0561129,24.1381297 26.0561129,24.3841724 C26.0561129,24.6393303 26.1586304,24.8694237 26.3636686,25.0744619 C26.5687037,25.279497 26.794241,25.3820145 27.0402868,25.3820145 C27.4047963,25.3820145 27.7032338,25.281775 27.9356114,25.081296 C28.1679859,24.8808139 28.2841716,24.6484424 28.2841716,24.3841724 L28.2841716,24.3841724 Z M25.0582738,17.4539565 C25.0582738,17.0803349 24.9466442,16.7796194 24.7233818,16.5518009 C24.5001194,16.3239794 24.2016789,16.2100717 23.8280572,16.2100717 C23.4362082,16.2100717 23.0899291,16.3262574 22.7892075,16.558635 C22.4884859,16.7910095 22.3381297,17.089447 22.3381297,17.4539565 C22.3381297,17.8093539 22.4884859,18.1032384 22.7892075,18.3356129 C23.0899291,18.5679874 23.4362082,18.6841732 23.8280572,18.6841732 C24.2016789,18.6841732 24.5001194,18.5725435 24.7233818,18.3492811 C24.9466442,18.1260187 25.0582738,17.8275812 25.0582738,17.4539565 L25.0582738,17.4539565 Z M33.7381281,24.3841724 C33.7381281,24.1290175 33.6196644,23.9012021 33.3827338,23.7007201 C33.1458001,23.500238 32.8496407,23.4000015 32.4942433,23.4000015 C32.2481975,23.4000015 32.0226602,23.5025191 31.8176251,23.7075542 C31.6125869,23.9125923 31.5100694,24.1381297 31.5100694,24.3841724 C31.5100694,24.6393303 31.6125869,24.8694237 31.8176251,25.0744619 C32.0226602,25.279497 32.2481975,25.3820145 32.4942433,25.3820145 C32.8496407,25.3820145 33.1458001,25.281775 33.3827338,25.081296 C33.6196644,24.8808139 33.7381281,24.6484424 33.7381281,24.3841724 L33.7381281,24.3841724 Z M30.1021571,18.9575553 C29.8196628,18.9211037 29.5007201,18.9028795 29.1453227,18.9028795 C27.6052662,18.9028795 26.188254,19.2537147 24.8942433,19.9553974 C23.6002326,20.6570801 22.5818974,21.6070682 21.8392071,22.8053955 C21.0965198,24.0037228 20.7251793,25.3136613 20.7251793,26.735251 C20.7251793,27.4460458 20.8299748,28.1386072 21.039569,28.8129504 C20.7206201,28.8402868 20.4107925,28.8539581 20.1100709,28.8539581 C19.8731403,28.8539581 19.6453249,28.847124 19.4266186,28.8334527 C19.2079123,28.8197845 18.9573166,28.790167 18.6748192,28.7446034 C18.3923249,28.6990397 18.1895679,28.6671472 18.066545,28.6489199 C17.9435252,28.6306957 17.6952044,28.5828539 17.3215828,28.5053947 C16.947958,28.4279386 16.7201426,28.3800969 16.6381304,28.3618696 L13.179856,30.0978429 L14.164029,27.1179847 C11.5213296,25.2680976 10.2,23.0355042 10.2,20.4201434 C10.2,18.88009 10.64424,17.4630778 11.5327339,16.1690671 C12.4212274,14.8750534 13.6240926,13.8567182 15.1413657,13.1140309 C16.6586388,12.3713406 18.3148596,12 20.1100709,12 C21.7139154,12 23.228889,12.3007185 24.6550347,12.9021587 C26.0811804,13.5036018 27.2749332,14.3351293 28.2363299,15.3967624 C29.1977266,16.4583986 29.8196628,17.6453173 30.1021571,18.9575553 L30.1021571,18.9575553 Z M38.1942426,26.6258993 C38.1942426,27.6920916 37.8821369,28.7104268 37.2579134,29.6809355 C36.6336899,30.6514443 35.7884943,31.5330885 34.7223021,32.3258995 L35.4740984,34.8 L32.7539542,33.3100722 C31.3870435,33.6472441 30.3937666,33.8158273 29.7740992,33.8158273 C28.2340427,33.8158273 26.8170305,33.4946077 25.5230198,32.8521584 C24.2290091,32.2097091 23.2106739,31.3371747 22.4679836,30.2345339 C21.7252963,29.1318901 21.3539558,27.9290252 21.3539558,26.6258993 C21.3539558,25.3227765 21.7252963,24.1199115 22.4679836,23.0172677 C23.2106739,21.9146239 24.2290091,21.0420889 25.5230198,20.3996411 C26.8170305,19.7571934 28.2340427,19.4359725 29.7740992,19.4359725 C31.2412525,19.4359725 32.6218161,19.7571934 33.9158268,20.3996411 C35.2098375,21.0420889 36.246397,21.916902 37.0255389,23.0241018 C37.8046777,24.1313017 38.1942426,25.3318886 38.1942426,26.6258993 L38.1942426,26.6258993 Z" id="Page-1" fill="#FFFFFF"></path>
                </g>
                <g id="Group-5-Copy-2" transform="translate(320.000000, 160.000000)">
                    <path d="M48,24 C48,37.254 37.2552,48 24,48 C10.746,48 0,37.254 0,24 C0,10.7436 10.746,0 24,0 C37.2552,0 48,10.7436 48,24 L48,24 Z" id="Fill-5-Copy-2" fill="#2E78C8"></path>
                    <path d="M14.2172,32.2496 C12.2156,29.978 11,26.9972 11,23.7344 C11,17.2952 15.7232,11.9588 21.8936,11 L21.8936,19.016 C21.8936,24.6704 18.8,29.612 14.2172,32.2496 L14.2172,32.2496 L14.2172,32.2496 Z M33.704,32.2496 C29.1224,29.612 26.0276,24.6704 26.0276,19.016 L26.0276,11 C32.198,11.9588 36.9188,17.2952 36.9188,23.7344 C36.9188,26.9972 35.7032,29.978 33.704,32.2496 L33.704,32.2496 L33.704,32.2496 Z M23.8904,36.6236 C21.5552,36.6236 19.3664,35.9996 17.4764,34.9124 C20.2388,33.0236 22.4852,30.4352 23.96,27.404 C25.4228,30.4112 27.6452,32.9828 30.3776,34.8704 C28.4708,35.984 26.2556,36.6236 23.8904,36.6236 L23.8904,36.6236 L23.8904,36.6236 Z" id="Fill-8" fill="#FFFFFF"></path>
                </g>
            </g>
        </g>
    </g>
</svg>