<?xml version="1.0" encoding="UTF-8" standalone="no"?>
<svg width="384px" height="224px" viewBox="0 0 384 224" version="1.1" xmlns="http://www.w3.org/2000/svg" xmlns:xlink="http://www.w3.org/1999/xlink">
    <!-- Generator: Sketch 3.8.2 (29753) - http://www.bohemiancoding.com/sketch -->
    <title>login_icons_small</title>
    <desc>Created with Sketch.</desc>
    <defs>
        <path d="M64,32 C64,49.672 49.6736,64 32,64 C14.328,64 0,49.672 0,32 C0,14.3248 14.328,0 32,0 C49.6736,0 64,14.3248 64,32 L64,32 Z" id="path-1"></path>
        <mask id="mask-2" maskContentUnits="userSpaceOnUse" maskUnits="objectBoundingBox" x="0" y="0" width="64" height="64" fill="white">
            <use xlink:href="#path-1"></use>
        </mask>
        <path d="M64,32 C64,49.672 49.6736,64 32,64 C14.328,64 0,49.672 0,32 C0,14.3248 14.328,0 32,0 C49.6736,0 64,14.3248 64,32 L64,32 Z" id="path-3"></path>
        <mask id="mask-4" maskContentUnits="userSpaceOnUse" maskUnits="objectBoundingBox" x="0" y="0" width="64" height="64" fill="white">
            <use xlink:href="#path-3"></use>
        </mask>
        <path d="M64,32 C64,49.672 49.6736,64 32,64 C14.328,64 0,49.672 0,32 C0,14.3248 14.328,0 32,0 C49.6736,0 64,14.3248 64,32 L64,32 Z" id="path-5"></path>
        <mask id="mask-6" maskContentUnits="userSpaceOnUse" maskUnits="objectBoundingBox" x="0" y="0" width="64" height="64" fill="white">
            <use xlink:href="#path-5"></use>
        </mask>
        <path d="M64,32 C64,49.672 49.6736,64 32,64 C14.328,64 0,49.672 0,32 C0,14.3248 14.328,0 32,0 C49.6736,0 64,14.3248 64,32 L64,32 Z" id="path-7"></path>
        <mask id="mask-8" maskContentUnits="userSpaceOnUse" maskUnits="objectBoundingBox" x="0" y="0" width="64" height="64" fill="white">
            <use xlink:href="#path-7"></use>
        </mask>
        <path d="M64,32 C64,49.672 49.6736,64 32,64 C14.328,64 0,49.672 0,32 C0,14.3248 14.328,0 32,0 C49.6736,0 64,14.3248 64,32 L64,32 Z" id="path-9"></path>
        <mask id="mask-10" maskContentUnits="userSpaceOnUse" maskUnits="objectBoundingBox" x="0" y="0" width="64" height="64" fill="white">
            <use xlink:href="#path-9"></use>
        </mask>
    </defs>
    <g id="slice" stroke="none" stroke-width="1" fill="none" fill-rule="evenodd">
        <g id="Desktop-HD" transform="translate(-514.000000, -443.000000)">
            <g id="Group-7" transform="translate(514.000000, 443.000000)">
                <g id="Group-Copy-5">
                    <use id="Fill-5-Copy-4" stroke="#C90000" mask="url(#mask-2)" stroke-width="4" xlink:href="#path-1"></use>
                    <path d="M50.7712,27.3170732 C50.0304,27.3170732 49.4272,26.7317073 49.4272,26.0058537 C49.4272,20.5877073 44.9088,16.1795122 39.352,16.1795122 C38.6112,16.1795122 38.008,15.5925854 38.008,14.8682927 C38.008,14.145561 38.6112,13.5555122 39.352,13.5555122 C46.392,13.5555122 52.1184,19.1422439 52.1184,26.0058537 C52.1184,26.7317073 51.5152,27.3170732 50.7712,27.3170732 L50.7712,27.3170732 L50.7712,27.3170732 Z M38.8192,21.9254634 C41.288,21.9254634 43.2992,23.8876098 43.2992,26.2961951 C43.2992,26.8378537 42.8464,27.2796098 42.2912,27.2796098 C41.7312,27.2796098 41.28,26.8378537 41.28,26.2961951 C41.28,24.9724878 40.176,23.8954146 38.8192,23.8954146 C38.2624,23.8954146 37.8112,23.4552195 37.8112,22.908878 C37.8112,22.3672195 38.2624,21.9254634 38.8192,21.9254634 L38.8192,21.9254634 L38.8192,21.9254634 Z M38.7888,26.2087805 C40.4432,27.4185366 38.6704,31.1836098 38.6704,31.1836098 C38.6704,31.1836098 44.3664,30.8948293 45.7296,34.1916098 C48.5344,40.9678049 36.832,49.468878 25.9744,49.468878 C15.1216,49.468878 11.0848,43.9726829 11.0848,39.169561 C11.0848,34.366439 13.28,30.3765854 17.6112,25.918439 C21.7248,21.6881951 25.2736,19.9992195 27.5184,20.5970732 C29.4768,21.1153171 28.7616,25.4579512 28.8224,27.8868293 C32.6208,25.5157073 37.1296,24.9927805 38.7888,26.2087805 L38.7888,26.2087805 L38.7888,26.2087805 Z M26.2848,31.7377561 C19.128,32.4245854 13.6752,36.4706341 14.112,40.771122 C14.5472,45.0747317 20.7008,48.003122 27.8608,47.3116098 C35.0176,46.6247805 40.4672,42.5787317 40.0336,38.2782439 C39.5984,33.9777561 33.4416,31.0493659 26.2848,31.7377561 L26.2848,31.7377561 L26.2848,31.7377561 Z M28.2976,44.7531707 C25.2848,46.528 21.6112,45.9832195 20.0944,43.5340488 C18.5744,41.084878 19.7888,37.6600976 22.8016,35.8837073 C25.8144,34.1073171 29.488,34.6536585 31.0048,37.1028293 C32.5216,39.552 31.312,42.9767805 28.2976,44.7531707 L28.2976,44.7531707 L28.2976,44.7531707 Z M26.2432,39.9094634 C25.7408,39.0961951 24.5088,38.9198049 23.4912,39.5176585 C22.4768,40.1155122 22.064,41.2612683 22.5696,42.0776585 C23.0752,42.8924878 24.3056,43.0657561 25.3216,42.4679024 C26.3376,41.8716098 26.7488,40.7242927 26.2432,39.9094634 L26.2432,39.9094634 L26.2432,39.9094634 Z M44.968,25.8887805 C44.968,22.8074146 42.3952,20.2973659 39.2352,20.2973659 C38.584,20.2973659 38.0576,19.7838049 38.0576,19.1516098 C38.0576,18.5162927 38.584,18.0011707 39.2352,18.0011707 C43.6944,18.0011707 47.3232,21.5399024 47.3232,25.8887805 C47.3232,26.5256585 46.7936,27.0392195 46.1456,27.0392195 C45.4944,27.0392195 44.968,26.5256585 44.968,25.8887805 L44.968,25.8887805 L44.968,25.8887805 Z" id="Fill-2" fill="#C90000"></path>
                </g>
                <g id="Group-2-Copy-7" transform="translate(80.000000, 0.000000)">
                    <use id="Fill-5-Copy-3" stroke="#2A9CD5" mask="url(#mask-4)" stroke-width="4" xlink:href="#path-3"></use>
                    <path d="M26.7017886,47.3116098 L24.7802276,47.3116098 C22.836813,47.1149268 20.1550569,46.979122 19.3246179,45.6226341 C19.0373984,45.1527805 19.0545691,44.1116098 19.3511545,43.584 C19.7913496,42.8050732 20.7934959,42.5880976 21.9564228,42.4273171 C20.8106667,41.5219512 19.7476423,40.5307317 19.1326179,39.0759024 C19.0342764,38.8417561 18.9234472,38.595122 18.8313496,38.3500488 C18.7361301,38.1018537 18.7002276,37.8396098 18.5550569,37.5992195 C18.3037398,37.7990244 18.2225691,38.1674146 18.0617886,38.4577561 C17.7308618,38.846439 17.206374,39.5036098 16.6381789,39.7720976 C16.439935,39.868878 16.0887154,40.0109268 15.8686179,39.9609756 C15.4393496,39.8626341 15.351935,38.9276098 15.2676423,38.3765854 L15.2676423,37.0107317 C15.7140813,33.4876098 17.5825691,31.3537561 19.8444228,29.6039024 C19.4869593,28.6439024 19.9131057,27.5605854 20.3657886,26.9752195 C20.3486179,26.4117073 20.5577886,25.6343415 20.915252,25.2597073 C20.9464715,23.3974634 21.4772033,21.888 22.2576911,20.672 C23.6656911,18.4725854 25.267252,16.6852683 27.9895935,15.8142439 C30.7056911,14.9463415 34.5831545,15.0243902 37.0900813,16.0842927 C38.4309593,16.6462439 39.4971057,17.2269268 40.3821789,18.0948293 C41.7714472,19.452878 42.5815935,21.0638049 43.1529106,23.2460488 C43.2434472,23.5972683 43.3214959,23.9656585 43.3698862,24.3465366 C43.4167154,24.6993171 43.4260813,25.1145366 43.5353496,25.475122 C43.6727154,25.918439 44.1160325,26.3242927 44.3017886,26.8675122 C44.6186667,27.7822439 44.662374,28.7594146 44.2206179,29.5773659 C45.0744715,30.782439 45.8518374,32.0999024 46.6057886,33.788878 C47.2161301,35.1578537 47.7296911,37.6866341 47.0178862,39.2913171 C46.8446179,39.683122 46.4262764,40.2232195 46.003252,40.2279024 C45.5177886,40.2372683 45.1790569,39.683122 44.9355447,39.3178537 C44.6452033,38.8901463 44.406374,38.4842927 44.1940813,38.0550244 C43.7882276,38.5560976 43.636813,39.233561 43.3449106,39.8532683 C42.9296911,40.7242927 42.3287154,41.4876098 41.6699837,42.1354146 C42.3927154,42.5319024 43.2075447,42.881561 43.8631545,43.395122 C44.2814959,43.7229268 44.8418862,44.1834146 44.6889106,44.9529756 C44.6014959,45.3681951 44.2237398,45.7834146 43.9193496,45.9972683 C41.8697886,47.4489756 37.0292033,47.2632195 34.3224715,46.3750244 C34.0633496,46.2876098 33.7933008,46.2173659 33.526374,46.1315122 C33.2797398,46.0519024 33.0190569,45.8989268 32.7864715,45.8645854 C32.5929106,45.8318049 32.2932033,45.8520976 32.0465691,45.8380488 C31.7765203,45.8177561 31.4580813,45.763122 31.3332033,45.7834146 C31.1973984,45.8052683 31.0053984,45.9863415 30.839935,46.078439 C29.6816911,46.7340488 28.3907642,47.2600976 26.7017886,47.3116098" id="Fill-4" fill="#2A9CD5"></path>
                </g>
                <g id="Group-4-Copy-5" transform="translate(160.000000, 0.000000)">
                    <use id="Fill-5" stroke="#22A049" mask="url(#mask-6)" stroke-width="4" xlink:href="#path-5"></use>
                    <path d="M16.9184,21.5232 L45.1792,21.5232 L45.1792,17.6 L16.9184,17.6 L16.9184,21.5232 L16.9184,21.5232 Z M16,44.7872 L46.0992,44.7872 L46.0992,40.864 L38.0224,40.864 L40.888,36.7888 L37.1184,35.4384 L42.8512,35.4384 L42.8512,23.9456 L19.248,23.9456 L19.248,35.4384 L24.2304,35.4384 L21.0864,37.2464 C22.2432,38.6896 23.1776,39.8944 23.8912,40.864 L16,40.864 L16,44.7872 L16,44.7872 L16,44.7872 Z M23.5392,27.6832 L38.5584,27.6832 L38.5584,31.6992 L23.5392,31.6992 L23.5392,27.6832 L23.5392,27.6832 Z M25.2416,35.4384 L36.2,35.4384 C35.1344,37.3312 34.0512,39.1392 32.9488,40.864 L26.6816,40.864 L28.5968,39.7312 C27.9216,38.8 26.8032,37.3696 25.2416,35.4384 L25.2416,35.4384 L25.2416,35.4384 Z" id="Fill-6" fill="#22A049"></path>
                </g>
                <g id="Group-3-Copy-5" transform="translate(320.000000, 0.000000)">
                    <use id="Fill-5-Copy" stroke="#00BB00" mask="url(#mask-8)" stroke-width="4" xlink:href="#path-7"></use>
                    <path d="M24.170744,23.271942 C24.170744,22.7737798 24.018867,22.3728258 23.7151091,22.0690679 C23.411347,21.7653059 23.0103931,21.6134289 22.5122309,21.6134289 C21.9897656,21.6134289 21.52806,21.7683432 21.1270979,22.07818 C20.7261358,22.3880127 20.5256608,22.7859293 20.5256608,23.271942 C20.5256608,23.7458052 20.7261358,24.1376512 21.1270979,24.4474839 C21.52806,24.7573166 21.9897656,24.9122309 22.5122309,24.9122309 C23.0103931,24.9122309 23.411347,24.7633913 23.7151091,24.4657081 C24.018867,24.1680249 24.170744,23.7701083 24.170744,23.271942 L24.170744,23.271942 Z M37.7122288,32.5122298 C37.7122288,32.1720234 37.5573145,31.8682695 37.2474818,31.6009601 C36.937645,31.3336506 36.5397285,31.200002 36.0537157,31.200002 C35.7256547,31.200002 35.4249382,31.3366921 35.1515581,31.6100722 C34.8781739,31.8834564 34.7414838,32.1841729 34.7414838,32.5122298 C34.7414838,32.8524404 34.8781739,33.1592316 35.1515581,33.4326158 C35.4249382,33.7059959 35.7256547,33.842686 36.0537157,33.842686 C36.5397285,33.842686 36.937645,33.7090333 37.2474818,33.4417279 C37.5573145,33.1744185 37.7122288,32.8645899 37.7122288,32.5122298 L37.7122288,32.5122298 Z M33.4110318,23.271942 C33.4110318,22.7737798 33.2621922,22.3728258 32.964509,22.0690679 C32.6668258,21.7653059 32.2689052,21.6134289 31.7707429,21.6134289 C31.2482776,21.6134289 30.7865721,21.7683432 30.38561,22.07818 C29.9846478,22.3880127 29.7841729,22.7859293 29.7841729,23.271942 C29.7841729,23.7458052 29.9846478,24.1376512 30.38561,24.4474839 C30.7865721,24.7573166 31.2482776,24.9122309 31.7707429,24.9122309 C32.2689052,24.9122309 32.6668258,24.7633913 32.964509,24.4657081 C33.2621922,24.1680249 33.4110318,23.7701083 33.4110318,23.271942 L33.4110318,23.271942 Z M44.9841709,32.5122298 C44.9841709,32.1720234 44.8262192,31.8682695 44.5103117,31.6009601 C44.1944002,31.3336506 43.799521,31.200002 43.3256578,31.200002 C42.9975967,31.200002 42.6968802,31.3366921 42.4235001,31.6100722 C42.1501159,31.8834564 42.0134259,32.1841729 42.0134259,32.5122298 C42.0134259,32.8524404 42.1501159,33.1592316 42.4235001,33.4326158 C42.6968802,33.7059959 42.9975967,33.842686 43.3256578,33.842686 C43.799521,33.842686 44.1944002,33.7090333 44.5103117,33.4417279 C44.8262192,33.1744185 44.9841709,32.8645899 44.9841709,32.5122298 L44.9841709,32.5122298 Z M40.1362095,25.2767404 C39.7595505,25.2281383 39.3342934,25.2038393 38.8604302,25.2038393 C36.8070216,25.2038393 34.917672,25.6716196 33.1923244,26.6071966 C31.4669768,27.5427735 30.1091966,28.8094243 29.1189428,30.407194 C28.1286931,32.0049637 27.6335723,33.7515484 27.6335723,35.6470013 C27.6335723,36.5947277 27.7732998,37.5181429 28.0527587,38.4172672 C27.6274935,38.4537157 27.21439,38.4719441 26.8134279,38.4719441 C26.4975205,38.4719441 26.1937666,38.4628319 25.9021581,38.4446036 C25.6105497,38.4263794 25.2764221,38.3868894 24.899759,38.3261378 C24.5230999,38.2653862 24.2527572,38.222863 24.0887267,38.1985599 C23.9247002,38.1742609 23.5936059,38.1104719 23.0954437,38.007193 C22.5972774,37.9039181 22.2935235,37.8401292 22.1841739,37.8158261 L17.5731413,40.1304572 L18.885372,36.157313 C15.3617728,33.6907968 13.6,30.7140057 13.6,27.2268579 C13.6,25.1734533 14.19232,23.2841038 15.3769785,21.5587562 C16.5616365,19.8334045 18.1654569,18.4756242 20.1884877,17.4853745 C22.2115185,16.4951208 24.4198128,16 26.8134279,16 C28.9518871,16 30.971852,16.400958 32.8733796,17.2028782 C34.7749072,18.0048025 36.3665776,19.1135057 37.6484399,20.5290165 C38.9303021,21.9445314 39.7595505,23.5270897 40.1362095,25.2767404 L40.1362095,25.2767404 Z M50.9256567,35.5011991 C50.9256567,36.9227887 50.5095159,38.280569 49.6772179,39.5745807 C48.8449199,40.8685924 47.7179924,42.044118 46.2964027,43.1011993 L47.2987979,46.4 L43.671939,44.4134295 C41.8493913,44.8629921 40.5250221,45.0877697 39.6987989,45.0877697 C37.6453902,45.0877697 35.7560407,44.659477 34.0306931,43.8028779 C32.3053455,42.9462789 30.9475652,41.7828996 29.9573115,40.3127119 C28.9670618,38.8425202 28.471941,37.2387003 28.471941,35.5011991 C28.471941,33.763702 28.9670618,32.1598821 29.9573115,30.6896903 C30.9475652,29.2194986 32.3053455,28.0561185 34.0306931,27.1995215 C35.7560407,26.3429245 37.6453902,25.9146301 39.6987989,25.9146301 C41.6550033,25.9146301 43.4957549,26.3429245 45.2211025,27.1995215 C46.9464501,28.0561185 48.3285293,29.222536 49.3673852,30.6988024 C50.406237,32.1750689 50.9256567,33.7758515 50.9256567,35.5011991 L50.9256567,35.5011991 Z" id="Page-1" fill="#00BB00"></path>
                </g>
                <g id="Group-5-Copy-5" transform="translate(240.000000, 0.000000)">
                    <use id="Fill-5-Copy-2" stroke="#337AC5" mask="url(#mask-10)" stroke-width="4" xlink:href="#path-9"></use>
                    <path d="M18.6896,42.7328 C16.0208,39.704 14.4,35.7296 14.4,31.3792 C14.4,22.7936 20.6976,15.6784 28.9248,14.4 L28.9248,25.088 C28.9248,32.6272 24.8,39.216 18.6896,42.7328 L18.6896,42.7328 L18.6896,42.7328 Z M44.672,42.7328 C38.5632,39.216 34.4368,32.6272 34.4368,25.088 L34.4368,14.4 C42.664,15.6784 48.9584,22.7936 48.9584,31.3792 C48.9584,35.7296 47.3376,39.704 44.672,42.7328 L44.672,42.7328 L44.672,42.7328 Z M31.5872,48.5648 C28.4736,48.5648 25.5552,47.7328 23.0352,46.2832 C26.7184,43.7648 29.7136,40.3136 31.68,36.272 C33.6304,40.2816 36.5936,43.7104 40.2368,46.2272 C37.6944,47.712 34.7408,48.5648 31.5872,48.5648 L31.5872,48.5648 L31.5872,48.5648 Z" id="Fill-8" fill="#337AC5"></path>
                </g>
                <g id="Group-Copy-4" transform="translate(0.000000, 80.000000)">
                    <path d="M64,32 C64,49.672 49.6736,64 32,64 C14.328,64 0,49.672 0,32 C0,14.3248 14.328,0 32,0 C49.6736,0 64,14.3248 64,32 L64,32 Z" id="Fill-5-Copy-4" fill="#C90000"></path>
                    <path d="M50.7712,27.3170732 C50.0304,27.3170732 49.4272,26.7317073 49.4272,26.0058537 C49.4272,20.5877073 44.9088,16.1795122 39.352,16.1795122 C38.6112,16.1795122 38.008,15.5925854 38.008,14.8682927 C38.008,14.145561 38.6112,13.5555122 39.352,13.5555122 C46.392,13.5555122 52.1184,19.1422439 52.1184,26.0058537 C52.1184,26.7317073 51.5152,27.3170732 50.7712,27.3170732 L50.7712,27.3170732 L50.7712,27.3170732 Z M38.8192,21.9254634 C41.288,21.9254634 43.2992,23.8876098 43.2992,26.2961951 C43.2992,26.8378537 42.8464,27.2796098 42.2912,27.2796098 C41.7312,27.2796098 41.28,26.8378537 41.28,26.2961951 C41.28,24.9724878 40.176,23.8954146 38.8192,23.8954146 C38.2624,23.8954146 37.8112,23.4552195 37.8112,22.908878 C37.8112,22.3672195 38.2624,21.9254634 38.8192,21.9254634 L38.8192,21.9254634 L38.8192,21.9254634 Z M38.7888,26.2087805 C40.4432,27.4185366 38.6704,31.1836098 38.6704,31.1836098 C38.6704,31.1836098 44.3664,30.8948293 45.7296,34.1916098 C48.5344,40.9678049 36.832,49.468878 25.9744,49.468878 C15.1216,49.468878 11.0848,43.9726829 11.0848,39.169561 C11.0848,34.366439 13.28,30.3765854 17.6112,25.918439 C21.7248,21.6881951 25.2736,19.9992195 27.5184,20.5970732 C29.4768,21.1153171 28.7616,25.4579512 28.8224,27.8868293 C32.6208,25.5157073 37.1296,24.9927805 38.7888,26.2087805 L38.7888,26.2087805 L38.7888,26.2087805 Z M26.2848,31.7377561 C19.128,32.4245854 13.6752,36.4706341 14.112,40.771122 C14.5472,45.0747317 20.7008,48.003122 27.8608,47.3116098 C35.0176,46.6247805 40.4672,42.5787317 40.0336,38.2782439 C39.5984,33.9777561 33.4416,31.0493659 26.2848,31.7377561 L26.2848,31.7377561 L26.2848,31.7377561 Z M28.2976,44.7531707 C25.2848,46.528 21.6112,45.9832195 20.0944,43.5340488 C18.5744,41.084878 19.7888,37.6600976 22.8016,35.8837073 C25.8144,34.1073171 29.488,34.6536585 31.0048,37.1028293 C32.5216,39.552 31.312,42.9767805 28.2976,44.7531707 L28.2976,44.7531707 L28.2976,44.7531707 Z M26.2432,39.9094634 C25.7408,39.0961951 24.5088,38.9198049 23.4912,39.5176585 C22.4768,40.1155122 22.064,41.2612683 22.5696,42.0776585 C23.0752,42.8924878 24.3056,43.0657561 25.3216,42.4679024 C26.3376,41.8716098 26.7488,40.7242927 26.2432,39.9094634 L26.2432,39.9094634 L26.2432,39.9094634 Z M44.968,25.8887805 C44.968,22.8074146 42.3952,20.2973659 39.2352,20.2973659 C38.584,20.2973659 38.0576,19.7838049 38.0576,19.1516098 C38.0576,18.5162927 38.584,18.0011707 39.2352,18.0011707 C43.6944,18.0011707 47.3232,21.5399024 47.3232,25.8887805 C47.3232,26.5256585 46.7936,27.0392195 46.1456,27.0392195 C45.4944,27.0392195 44.968,26.5256585 44.968,25.8887805 L44.968,25.8887805 L44.968,25.8887805 Z" id="Fill-2" fill="#FFFFFF"></path>
                </g>
                <g id="Group-2-Copy-6" transform="translate(80.000000, 80.000000)">
                    <path d="M64,32 C64,49.672 49.6736,64 32,64 C14.328,64 0,49.672 0,32 C0,14.3248 14.328,0 32,0 C49.6736,0 64,14.3248 64,32 L64,32 Z" id="Fill-5-Copy-3" fill="#2A9CD5"></path>
                    <path d="M26.7017886,47.3116098 L24.7802276,47.3116098 C22.836813,47.1149268 20.1550569,46.979122 19.3246179,45.6226341 C19.0373984,45.1527805 19.0545691,44.1116098 19.3511545,43.584 C19.7913496,42.8050732 20.7934959,42.5880976 21.9564228,42.4273171 C20.8106667,41.5219512 19.7476423,40.5307317 19.1326179,39.0759024 C19.0342764,38.8417561 18.9234472,38.595122 18.8313496,38.3500488 C18.7361301,38.1018537 18.7002276,37.8396098 18.5550569,37.5992195 C18.3037398,37.7990244 18.2225691,38.1674146 18.0617886,38.4577561 C17.7308618,38.846439 17.206374,39.5036098 16.6381789,39.7720976 C16.439935,39.868878 16.0887154,40.0109268 15.8686179,39.9609756 C15.4393496,39.8626341 15.351935,38.9276098 15.2676423,38.3765854 L15.2676423,37.0107317 C15.7140813,33.4876098 17.5825691,31.3537561 19.8444228,29.6039024 C19.4869593,28.6439024 19.9131057,27.5605854 20.3657886,26.9752195 C20.3486179,26.4117073 20.5577886,25.6343415 20.915252,25.2597073 C20.9464715,23.3974634 21.4772033,21.888 22.2576911,20.672 C23.6656911,18.4725854 25.267252,16.6852683 27.9895935,15.8142439 C30.7056911,14.9463415 34.5831545,15.0243902 37.0900813,16.0842927 C38.4309593,16.6462439 39.4971057,17.2269268 40.3821789,18.0948293 C41.7714472,19.452878 42.5815935,21.0638049 43.1529106,23.2460488 C43.2434472,23.5972683 43.3214959,23.9656585 43.3698862,24.3465366 C43.4167154,24.6993171 43.4260813,25.1145366 43.5353496,25.475122 C43.6727154,25.918439 44.1160325,26.3242927 44.3017886,26.8675122 C44.6186667,27.7822439 44.662374,28.7594146 44.2206179,29.5773659 C45.0744715,30.782439 45.8518374,32.0999024 46.6057886,33.788878 C47.2161301,35.1578537 47.7296911,37.6866341 47.0178862,39.2913171 C46.8446179,39.683122 46.4262764,40.2232195 46.003252,40.2279024 C45.5177886,40.2372683 45.1790569,39.683122 44.9355447,39.3178537 C44.6452033,38.8901463 44.406374,38.4842927 44.1940813,38.0550244 C43.7882276,38.5560976 43.636813,39.233561 43.3449106,39.8532683 C42.9296911,40.7242927 42.3287154,41.4876098 41.6699837,42.1354146 C42.3927154,42.5319024 43.2075447,42.881561 43.8631545,43.395122 C44.2814959,43.7229268 44.8418862,44.1834146 44.6889106,44.9529756 C44.6014959,45.3681951 44.2237398,45.7834146 43.9193496,45.9972683 C41.8697886,47.4489756 37.0292033,47.2632195 34.3224715,46.3750244 C34.0633496,46.2876098 33.7933008,46.2173659 33.526374,46.1315122 C33.2797398,46.0519024 33.0190569,45.8989268 32.7864715,45.8645854 C32.5929106,45.8318049 32.2932033,45.8520976 32.0465691,45.8380488 C31.7765203,45.8177561 31.4580813,45.763122 31.3332033,45.7834146 C31.1973984,45.8052683 31.0053984,45.9863415 30.839935,46.078439 C29.6816911,46.7340488 28.3907642,47.2600976 26.7017886,47.3116098" id="Fill-4" fill="#FFFFFF"></path>
                </g>
                <g id="Group-4-Copy-4" transform="translate(160.000000, 80.000000)">
                    <path d="M64,32 C64,49.672 49.6736,64 32,64 C14.328,64 0,49.672 0,32 C0,14.3248 14.328,0 32,0 C49.6736,0 64,14.3248 64,32 L64,32 Z" id="Fill-5" fill="#22A049"></path>
                    <path d="M16.9184,21.5232 L45.1792,21.5232 L45.1792,17.6 L16.9184,17.6 L16.9184,21.5232 L16.9184,21.5232 Z M16,44.7872 L46.0992,44.7872 L46.0992,40.864 L38.0224,40.864 L40.888,36.7888 L37.1184,35.4384 L42.8512,35.4384 L42.8512,23.9456 L19.248,23.9456 L19.248,35.4384 L24.2304,35.4384 L21.0864,37.2464 C22.2432,38.6896 23.1776,39.8944 23.8912,40.864 L16,40.864 L16,44.7872 L16,44.7872 L16,44.7872 Z M23.5392,27.6832 L38.5584,27.6832 L38.5584,31.6992 L23.5392,31.6992 L23.5392,27.6832 L23.5392,27.6832 Z M25.2416,35.4384 L36.2,35.4384 C35.1344,37.3312 34.0512,39.1392 32.9488,40.864 L26.6816,40.864 L28.5968,39.7312 C27.9216,38.8 26.8032,37.3696 25.2416,35.4384 L25.2416,35.4384 L25.2416,35.4384 Z" id="Fill-6" fill="#FFFFFF"></path>
                </g>
                <g id="Group-3-Copy-4" transform="translate(320.000000, 80.000000)">
                    <path d="M64,32 C64,49.672 49.6736,64 32,64 C14.328,64 0,49.672 0,32 C0,14.3248 14.328,0 32,0 C49.6736,0 64,14.3248 64,32 L64,32 Z" id="Fill-5-Copy" fill="#00BB00"></path>
                    <path d="M24.170744,23.271942 C24.170744,22.7737798 24.018867,22.3728258 23.7151091,22.0690679 C23.411347,21.7653059 23.0103931,21.6134289 22.5122309,21.6134289 C21.9897656,21.6134289 21.52806,21.7683432 21.1270979,22.07818 C20.7261358,22.3880127 20.5256608,22.7859293 20.5256608,23.271942 C20.5256608,23.7458052 20.7261358,24.1376512 21.1270979,24.4474839 C21.52806,24.7573166 21.9897656,24.9122309 22.5122309,24.9122309 C23.0103931,24.9122309 23.411347,24.7633913 23.7151091,24.4657081 C24.018867,24.1680249 24.170744,23.7701083 24.170744,23.271942 L24.170744,23.271942 Z M37.7122288,32.5122298 C37.7122288,32.1720234 37.5573145,31.8682695 37.2474818,31.6009601 C36.937645,31.3336506 36.5397285,31.200002 36.0537157,31.200002 C35.7256547,31.200002 35.4249382,31.3366921 35.1515581,31.6100722 C34.8781739,31.8834564 34.7414838,32.1841729 34.7414838,32.5122298 C34.7414838,32.8524404 34.8781739,33.1592316 35.1515581,33.4326158 C35.4249382,33.7059959 35.7256547,33.842686 36.0537157,33.842686 C36.5397285,33.842686 36.937645,33.7090333 37.2474818,33.4417279 C37.5573145,33.1744185 37.7122288,32.8645899 37.7122288,32.5122298 L37.7122288,32.5122298 Z M33.4110318,23.271942 C33.4110318,22.7737798 33.2621922,22.3728258 32.964509,22.0690679 C32.6668258,21.7653059 32.2689052,21.6134289 31.7707429,21.6134289 C31.2482776,21.6134289 30.7865721,21.7683432 30.38561,22.07818 C29.9846478,22.3880127 29.7841729,22.7859293 29.7841729,23.271942 C29.7841729,23.7458052 29.9846478,24.1376512 30.38561,24.4474839 C30.7865721,24.7573166 31.2482776,24.9122309 31.7707429,24.9122309 C32.2689052,24.9122309 32.6668258,24.7633913 32.964509,24.4657081 C33.2621922,24.1680249 33.4110318,23.7701083 33.4110318,23.271942 L33.4110318,23.271942 Z M44.9841709,32.5122298 C44.9841709,32.1720234 44.8262192,31.8682695 44.5103117,31.6009601 C44.1944002,31.3336506 43.799521,31.200002 43.3256578,31.200002 C42.9975967,31.200002 42.6968802,31.3366921 42.4235001,31.6100722 C42.1501159,31.8834564 42.0134259,32.1841729 42.0134259,32.5122298 C42.0134259,32.8524404 42.1501159,33.1592316 42.4235001,33.4326158 C42.6968802,33.7059959 42.9975967,33.842686 43.3256578,33.842686 C43.799521,33.842686 44.1944002,33.7090333 44.5103117,33.4417279 C44.8262192,33.1744185 44.9841709,32.8645899 44.9841709,32.5122298 L44.9841709,32.5122298 Z M40.1362095,25.2767404 C39.7595505,25.2281383 39.3342934,25.2038393 38.8604302,25.2038393 C36.8070216,25.2038393 34.917672,25.6716196 33.1923244,26.6071966 C31.4669768,27.5427735 30.1091966,28.8094243 29.1189428,30.407194 C28.1286931,32.0049637 27.6335723,33.7515484 27.6335723,35.6470013 C27.6335723,36.5947277 27.7732998,37.5181429 28.0527587,38.4172672 C27.6274935,38.4537157 27.21439,38.4719441 26.8134279,38.4719441 C26.4975205,38.4719441 26.1937666,38.4628319 25.9021581,38.4446036 C25.6105497,38.4263794 25.2764221,38.3868894 24.899759,38.3261378 C24.5230999,38.2653862 24.2527572,38.222863 24.0887267,38.1985599 C23.9247002,38.1742609 23.5936059,38.1104719 23.0954437,38.007193 C22.5972774,37.9039181 22.2935235,37.8401292 22.1841739,37.8158261 L17.5731413,40.1304572 L18.885372,36.157313 C15.3617728,33.6907968 13.6,30.7140057 13.6,27.2268579 C13.6,25.1734533 14.19232,23.2841038 15.3769785,21.5587562 C16.5616365,19.8334045 18.1654569,18.4756242 20.1884877,17.4853745 C22.2115185,16.4951208 24.4198128,16 26.8134279,16 C28.9518871,16 30.971852,16.400958 32.8733796,17.2028782 C34.7749072,18.0048025 36.3665776,19.1135057 37.6484399,20.5290165 C38.9303021,21.9445314 39.7595505,23.5270897 40.1362095,25.2767404 L40.1362095,25.2767404 Z M50.9256567,35.5011991 C50.9256567,36.9227887 50.5095159,38.280569 49.6772179,39.5745807 C48.8449199,40.8685924 47.7179924,42.044118 46.2964027,43.1011993 L47.2987979,46.4 L43.671939,44.4134295 C41.8493913,44.8629921 40.5250221,45.0877697 39.6987989,45.0877697 C37.6453902,45.0877697 35.7560407,44.659477 34.0306931,43.8028779 C32.3053455,42.9462789 30.9475652,41.7828996 29.9573115,40.3127119 C28.9670618,38.8425202 28.471941,37.2387003 28.471941,35.5011991 C28.471941,33.763702 28.9670618,32.1598821 29.9573115,30.6896903 C30.9475652,29.2194986 32.3053455,28.0561185 34.0306931,27.1995215 C35.7560407,26.3429245 37.6453902,25.9146301 39.6987989,25.9146301 C41.6550033,25.9146301 43.4957549,26.3429245 45.2211025,27.1995215 C46.9464501,28.0561185 48.3285293,29.222536 49.3673852,30.6988024 C50.406237,32.1750689 50.9256567,33.7758515 50.9256567,35.5011991 L50.9256567,35.5011991 Z" id="Page-1" fill="#FFFFFF"></path>
                </g>
                <g id="Group-5-Copy-4" transform="translate(240.000000, 80.000000)">
                    <path d="M64,32 C64,49.672 49.6736,64 32,64 C14.328,64 0,49.672 0,32 C0,14.3248 14.328,0 32,0 C49.6736,0 64,14.3248 64,32 L64,32 Z" id="Fill-5-Copy-2" fill="#337AC5"></path>
                    <path d="M18.9562667,42.9994667 C16.2874667,39.9706667 14.6666667,35.9962667 14.6666667,31.6458667 C14.6666667,23.0602667 20.9642667,15.9450667 29.1914667,14.6666667 L29.1914667,25.3546667 C29.1914667,32.8938667 25.0666667,39.4826667 18.9562667,42.9994667 L18.9562667,42.9994667 L18.9562667,42.9994667 Z M44.9386667,42.9994667 C38.8298667,39.4826667 34.7034667,32.8938667 34.7034667,25.3546667 L34.7034667,14.6666667 C42.9306667,15.9450667 49.2250667,23.0602667 49.2250667,31.6458667 C49.2250667,35.9962667 47.6042667,39.9706667 44.9386667,42.9994667 L44.9386667,42.9994667 L44.9386667,42.9994667 Z M31.8538667,48.8314667 C28.7402667,48.8314667 25.8218667,47.9994667 23.3018667,46.5498667 C26.9850667,44.0314667 29.9802667,40.5802667 31.9466667,36.5386667 C33.8970667,40.5482667 36.8602667,43.9770667 40.5034667,46.4938667 C37.9610667,47.9786667 35.0074667,48.8314667 31.8538667,48.8314667 L31.8538667,48.8314667 L31.8538667,48.8314667 Z" id="Fill-8" fill="#FFFFFF"></path>
                </g>
                <g id="Group-Copy-3" transform="translate(0.000000, 160.000000)">
                    <path d="M64,32 C64,49.672 49.6736,64 32,64 C14.328,64 0,49.672 0,32 C0,14.3248 14.328,0 32,0 C49.6736,0 64,14.3248 64,32 L64,32 Z" id="Fill-5-Copy-4" fill="#CB0000"></path>
                    <path d="M50.7712,27.3170732 C50.0304,27.3170732 49.4272,26.7317073 49.4272,26.0058537 C49.4272,20.5877073 44.9088,16.1795122 39.352,16.1795122 C38.6112,16.1795122 38.008,15.5925854 38.008,14.8682927 C38.008,14.145561 38.6112,13.5555122 39.352,13.5555122 C46.392,13.5555122 52.1184,19.1422439 52.1184,26.0058537 C52.1184,26.7317073 51.5152,27.3170732 50.7712,27.3170732 L50.7712,27.3170732 L50.7712,27.3170732 Z M38.8192,21.9254634 C41.288,21.9254634 43.2992,23.8876098 43.2992,26.2961951 C43.2992,26.8378537 42.8464,27.2796098 42.2912,27.2796098 C41.7312,27.2796098 41.28,26.8378537 41.28,26.2961951 C41.28,24.9724878 40.176,23.8954146 38.8192,23.8954146 C38.2624,23.8954146 37.8112,23.4552195 37.8112,22.908878 C37.8112,22.3672195 38.2624,21.9254634 38.8192,21.9254634 L38.8192,21.9254634 L38.8192,21.9254634 Z M38.7888,26.2087805 C40.4432,27.4185366 38.6704,31.1836098 38.6704,31.1836098 C38.6704,31.1836098 44.3664,30.8948293 45.7296,34.1916098 C48.5344,40.9678049 36.832,49.468878 25.9744,49.468878 C15.1216,49.468878 11.0848,43.9726829 11.0848,39.169561 C11.0848,34.366439 13.28,30.3765854 17.6112,25.918439 C21.7248,21.6881951 25.2736,19.9992195 27.5184,20.5970732 C29.4768,21.1153171 28.7616,25.4579512 28.8224,27.8868293 C32.6208,25.5157073 37.1296,24.9927805 38.7888,26.2087805 L38.7888,26.2087805 L38.7888,26.2087805 Z M26.2848,31.7377561 C19.128,32.4245854 13.6752,36.4706341 14.112,40.771122 C14.5472,45.0747317 20.7008,48.003122 27.8608,47.3116098 C35.0176,46.6247805 40.4672,42.5787317 40.0336,38.2782439 C39.5984,33.9777561 33.4416,31.0493659 26.2848,31.7377561 L26.2848,31.7377561 L26.2848,31.7377561 Z M28.2976,44.7531707 C25.2848,46.528 21.6112,45.9832195 20.0944,43.5340488 C18.5744,41.084878 19.7888,37.6600976 22.8016,35.8837073 C25.8144,34.1073171 29.488,34.6536585 31.0048,37.1028293 C32.5216,39.552 31.312,42.9767805 28.2976,44.7531707 L28.2976,44.7531707 L28.2976,44.7531707 Z M26.2432,39.9094634 C25.7408,39.0961951 24.5088,38.9198049 23.4912,39.5176585 C22.4768,40.1155122 22.064,41.2612683 22.5696,42.0776585 C23.0752,42.8924878 24.3056,43.0657561 25.3216,42.4679024 C26.3376,41.8716098 26.7488,40.7242927 26.2432,39.9094634 L26.2432,39.9094634 L26.2432,39.9094634 Z M44.968,25.8887805 C44.968,22.8074146 42.3952,20.2973659 39.2352,20.2973659 C38.584,20.2973659 38.0576,19.7838049 38.0576,19.1516098 C38.0576,18.5162927 38.584,18.0011707 39.2352,18.0011707 C43.6944,18.0011707 47.3232,21.5399024 47.3232,25.8887805 C47.3232,26.5256585 46.7936,27.0392195 46.1456,27.0392195 C45.4944,27.0392195 44.968,26.5256585 44.968,25.8887805 L44.968,25.8887805 L44.968,25.8887805 Z" id="Fill-2" fill="#FFFFFF"></path>
                </g>
                <g id="Group-2-Copy-5" transform="translate(80.000000, 160.000000)">
                    <path d="M64,32 C64,49.672 49.6736,64 32,64 C14.328,64 0,49.672 0,32 C0,14.3248 14.328,0 32,0 C49.6736,0 64,14.3248 64,32 L64,32 Z" id="Fill-5-Copy-3" fill="#1F9BD7"></path>
                    <path d="M26.7017886,47.3116098 L24.7802276,47.3116098 C22.836813,47.1149268 20.1550569,46.979122 19.3246179,45.6226341 C19.0373984,45.1527805 19.0545691,44.1116098 19.3511545,43.584 C19.7913496,42.8050732 20.7934959,42.5880976 21.9564228,42.4273171 C20.8106667,41.5219512 19.7476423,40.5307317 19.1326179,39.0759024 C19.0342764,38.8417561 18.9234472,38.595122 18.8313496,38.3500488 C18.7361301,38.1018537 18.7002276,37.8396098 18.5550569,37.5992195 C18.3037398,37.7990244 18.2225691,38.1674146 18.0617886,38.4577561 C17.7308618,38.846439 17.206374,39.5036098 16.6381789,39.7720976 C16.439935,39.868878 16.0887154,40.0109268 15.8686179,39.9609756 C15.4393496,39.8626341 15.351935,38.9276098 15.2676423,38.3765854 L15.2676423,37.0107317 C15.7140813,33.4876098 17.5825691,31.3537561 19.8444228,29.6039024 C19.4869593,28.6439024 19.9131057,27.5605854 20.3657886,26.9752195 C20.3486179,26.4117073 20.5577886,25.6343415 20.915252,25.2597073 C20.9464715,23.3974634 21.4772033,21.888 22.2576911,20.672 C23.6656911,18.4725854 25.267252,16.6852683 27.9895935,15.8142439 C30.7056911,14.9463415 34.5831545,15.0243902 37.0900813,16.0842927 C38.4309593,16.6462439 39.4971057,17.2269268 40.3821789,18.0948293 C41.7714472,19.452878 42.5815935,21.0638049 43.1529106,23.2460488 C43.2434472,23.5972683 43.3214959,23.9656585 43.3698862,24.3465366 C43.4167154,24.6993171 43.4260813,25.1145366 43.5353496,25.475122 C43.6727154,25.918439 44.1160325,26.3242927 44.3017886,26.8675122 C44.6186667,27.7822439 44.662374,28.7594146 44.2206179,29.5773659 C45.0744715,30.782439 45.8518374,32.0999024 46.6057886,33.788878 C47.2161301,35.1578537 47.7296911,37.6866341 47.0178862,39.2913171 C46.8446179,39.683122 46.4262764,40.2232195 46.003252,40.2279024 C45.5177886,40.2372683 45.1790569,39.683122 44.9355447,39.3178537 C44.6452033,38.8901463 44.406374,38.4842927 44.1940813,38.0550244 C43.7882276,38.5560976 43.636813,39.233561 43.3449106,39.8532683 C42.9296911,40.7242927 42.3287154,41.4876098 41.6699837,42.1354146 C42.3927154,42.5319024 43.2075447,42.881561 43.8631545,43.395122 C44.2814959,43.7229268 44.8418862,44.1834146 44.6889106,44.9529756 C44.6014959,45.3681951 44.2237398,45.7834146 43.9193496,45.9972683 C41.8697886,47.4489756 37.0292033,47.2632195 34.3224715,46.3750244 C34.0633496,46.2876098 33.7933008,46.2173659 33.526374,46.1315122 C33.2797398,46.0519024 33.0190569,45.8989268 32.7864715,45.8645854 C32.5929106,45.8318049 32.2932033,45.8520976 32.0465691,45.8380488 C31.7765203,45.8177561 31.4580813,45.763122 31.3332033,45.7834146 C31.1973984,45.8052683 31.0053984,45.9863415 30.839935,46.078439 C29.6816911,46.7340488 28.3907642,47.2600976 26.7017886,47.3116098" id="Fill-4" fill="#FFFFFF"></path>
                </g>
                <g id="Group-4-Copy-3" transform="translate(160.000000, 160.000000)">
                    <path d="M64,32 C64,49.672 49.6736,64 32,64 C14.328,64 0,49.672 0,32 C0,14.3248 14.328,0 32,0 C49.6736,0 64,14.3248 64,32 L64,32 Z" id="Fill-5" fill="#16A145"></path>
                    <path d="M16.9184,21.5232 L45.1792,21.5232 L45.1792,17.6 L16.9184,17.6 L16.9184,21.5232 L16.9184,21.5232 Z M16,44.7872 L46.0992,44.7872 L46.0992,40.864 L38.0224,40.864 L40.888,36.7888 L37.1184,35.4384 L42.8512,35.4384 L42.8512,23.9456 L19.248,23.9456 L19.248,35.4384 L24.2304,35.4384 L21.0864,37.2464 C22.2432,38.6896 23.1776,39.8944 23.8912,40.864 L16,40.864 L16,44.7872 L16,44.7872 L16,44.7872 Z M23.5392,27.6832 L38.5584,27.6832 L38.5584,31.6992 L23.5392,31.6992 L23.5392,27.6832 L23.5392,27.6832 Z M25.2416,35.4384 L36.2,35.4384 C35.1344,37.3312 34.0512,39.1392 32.9488,40.864 L26.6816,40.864 L28.5968,39.7312 C27.9216,38.8 26.8032,37.3696 25.2416,35.4384 L25.2416,35.4384 L25.2416,35.4384 Z" id="Fill-6" fill="#FFFFFF"></path>
                </g>
                <g id="Group-3-Copy-3" transform="translate(320.000000, 160.000000)">
                    <path d="M64,32 C64,49.672 49.6736,64 32,64 C14.328,64 0,49.672 0,32 C0,14.3248 14.328,0 32,0 C49.6736,0 64,14.3248 64,32 L64,32 Z" id="Fill-5-Copy" fill="#0AA80A"></path>
                    <path d="M24.170744,23.271942 C24.170744,22.7737798 24.018867,22.3728258 23.7151091,22.0690679 C23.411347,21.7653059 23.0103931,21.6134289 22.5122309,21.6134289 C21.9897656,21.6134289 21.52806,21.7683432 21.1270979,22.07818 C20.7261358,22.3880127 20.5256608,22.7859293 20.5256608,23.271942 C20.5256608,23.7458052 20.7261358,24.1376512 21.1270979,24.4474839 C21.52806,24.7573166 21.9897656,24.9122309 22.5122309,24.9122309 C23.0103931,24.9122309 23.411347,24.7633913 23.7151091,24.4657081 C24.018867,24.1680249 24.170744,23.7701083 24.170744,23.271942 L24.170744,23.271942 Z M37.7122288,32.5122298 C37.7122288,32.1720234 37.5573145,31.8682695 37.2474818,31.6009601 C36.937645,31.3336506 36.5397285,31.200002 36.0537157,31.200002 C35.7256547,31.200002 35.4249382,31.3366921 35.1515581,31.6100722 C34.8781739,31.8834564 34.7414838,32.1841729 34.7414838,32.5122298 C34.7414838,32.8524404 34.8781739,33.1592316 35.1515581,33.4326158 C35.4249382,33.7059959 35.7256547,33.842686 36.0537157,33.842686 C36.5397285,33.842686 36.937645,33.7090333 37.2474818,33.4417279 C37.5573145,33.1744185 37.7122288,32.8645899 37.7122288,32.5122298 L37.7122288,32.5122298 Z M33.4110318,23.271942 C33.4110318,22.7737798 33.2621922,22.3728258 32.964509,22.0690679 C32.6668258,21.7653059 32.2689052,21.6134289 31.7707429,21.6134289 C31.2482776,21.6134289 30.7865721,21.7683432 30.38561,22.07818 C29.9846478,22.3880127 29.7841729,22.7859293 29.7841729,23.271942 C29.7841729,23.7458052 29.9846478,24.1376512 30.38561,24.4474839 C30.7865721,24.7573166 31.2482776,24.9122309 31.7707429,24.9122309 C32.2689052,24.9122309 32.6668258,24.7633913 32.964509,24.4657081 C33.2621922,24.1680249 33.4110318,23.7701083 33.4110318,23.271942 L33.4110318,23.271942 Z M44.9841709,32.5122298 C44.9841709,32.1720234 44.8262192,31.8682695 44.5103117,31.6009601 C44.1944002,31.3336506 43.799521,31.200002 43.3256578,31.200002 C42.9975967,31.200002 42.6968802,31.3366921 42.4235001,31.6100722 C42.1501159,31.8834564 42.0134259,32.1841729 42.0134259,32.5122298 C42.0134259,32.8524404 42.1501159,33.1592316 42.4235001,33.4326158 C42.6968802,33.7059959 42.9975967,33.842686 43.3256578,33.842686 C43.799521,33.842686 44.1944002,33.7090333 44.5103117,33.4417279 C44.8262192,33.1744185 44.9841709,32.8645899 44.9841709,32.5122298 L44.9841709,32.5122298 Z M40.1362095,25.2767404 C39.7595505,25.2281383 39.3342934,25.2038393 38.8604302,25.2038393 C36.8070216,25.2038393 34.917672,25.6716196 33.1923244,26.6071966 C31.4669768,27.5427735 30.1091966,28.8094243 29.1189428,30.407194 C28.1286931,32.0049637 27.6335723,33.7515484 27.6335723,35.6470013 C27.6335723,36.5947277 27.7732998,37.5181429 28.0527587,38.4172672 C27.6274935,38.4537157 27.21439,38.4719441 26.8134279,38.4719441 C26.4975205,38.4719441 26.1937666,38.4628319 25.9021581,38.4446036 C25.6105497,38.4263794 25.2764221,38.3868894 24.899759,38.3261378 C24.5230999,38.2653862 24.2527572,38.222863 24.0887267,38.1985599 C23.9247002,38.1742609 23.5936059,38.1104719 23.0954437,38.007193 C22.5972774,37.9039181 22.2935235,37.8401292 22.1841739,37.8158261 L17.5731413,40.1304572 L18.885372,36.157313 C15.3617728,33.6907968 13.6,30.7140057 13.6,27.2268579 C13.6,25.1734533 14.19232,23.2841038 15.3769785,21.5587562 C16.5616365,19.8334045 18.1654569,18.4756242 20.1884877,17.4853745 C22.2115185,16.4951208 24.4198128,16 26.8134279,16 C28.9518871,16 30.971852,16.400958 32.8733796,17.2028782 C34.7749072,18.0048025 36.3665776,19.1135057 37.6484399,20.5290165 C38.9303021,21.9445314 39.7595505,23.5270897 40.1362095,25.2767404 L40.1362095,25.2767404 Z M50.9256567,35.5011991 C50.9256567,36.9227887 50.5095159,38.280569 49.6772179,39.5745807 C48.8449199,40.8685924 47.7179924,42.044118 46.2964027,43.1011993 L47.2987979,46.4 L43.671939,44.4134295 C41.8493913,44.8629921 40.5250221,45.0877697 39.6987989,45.0877697 C37.6453902,45.0877697 35.7560407,44.659477 34.0306931,43.8028779 C32.3053455,42.9462789 30.9475652,41.7828996 29.9573115,40.3127119 C28.9670618,38.8425202 28.471941,37.2387003 28.471941,35.5011991 C28.471941,33.763702 28.9670618,32.1598821 29.9573115,30.6896903 C30.9475652,29.2194986 32.3053455,28.0561185 34.0306931,27.1995215 C35.7560407,26.3429245 37.6453902,25.9146301 39.6987989,25.9146301 C41.6550033,25.9146301 43.4957549,26.3429245 45.2211025,27.1995215 C46.9464501,28.0561185 48.3285293,29.222536 49.3673852,30.6988024 C50.406237,32.1750689 50.9256567,33.7758515 50.9256567,35.5011991 L50.9256567,35.5011991 Z" id="Page-1" fill="#FFFFFF"></path>
                </g>
                <g id="Group-5-Copy-3" transform="translate(240.000000, 160.000000)">
                    <path d="M64,32 C64,49.672 49.6736,64 32,64 C14.328,64 0,49.672 0,32 C0,14.3248 14.328,0 32,0 C49.6736,0 64,14.3248 64,32 L64,32 Z" id="Fill-5-Copy-2" fill="#2E78C8"></path>
                    <path d="M18.9562667,42.9994667 C16.2874667,39.9706667 14.6666667,35.9962667 14.6666667,31.6458667 C14.6666667,23.0602667 20.9642667,15.9450667 29.1914667,14.6666667 L29.1914667,25.3546667 C29.1914667,32.8938667 25.0666667,39.4826667 18.9562667,42.9994667 L18.9562667,42.9994667 L18.9562667,42.9994667 Z M44.9386667,42.9994667 C38.8298667,39.4826667 34.7034667,32.8938667 34.7034667,25.3546667 L34.7034667,14.6666667 C42.9306667,15.9450667 49.2250667,23.0602667 49.2250667,31.6458667 C49.2250667,35.9962667 47.6042667,39.9706667 44.9386667,42.9994667 L44.9386667,42.9994667 L44.9386667,42.9994667 Z M31.8538667,48.8314667 C28.7402667,48.8314667 25.8218667,47.9994667 23.3018667,46.5498667 C26.9850667,44.0314667 29.9802667,40.5802667 31.9466667,36.5386667 C33.8970667,40.5482667 36.8602667,43.9770667 40.5034667,46.4938667 C37.9610667,47.9786667 35.0074667,48.8314667 31.8538667,48.8314667 L31.8538667,48.8314667 L31.8538667,48.8314667 Z" id="Fill-8" fill="#FFFFFF"></path>
                </g>
            </g>
        </g>
    </g>
</svg>