<?xml version="1.0" encoding="UTF-8" standalone="no"?>
<svg width="100px" height="790px" viewBox="0 0 100 790" version="1.1" xmlns="http://www.w3.org/2000/svg" xmlns:xlink="http://www.w3.org/1999/xlink" xmlns:sketch="http://www.bohemiancoding.com/sketch/ns">
    <!-- Generator: Sketch 3.2.2 (9983) - http://www.bohemiancoding.com/sketch -->
    <title>menu_sprite</title>
    <desc>Created with Sketch.</desc>
    <defs></defs>
    <g id="Page-1" stroke="none" stroke-width="1" fill="none" fill-rule="evenodd" sketch:type="MSPage">
        <g id="all" sketch:type="MSArtboardGroup" transform="translate(-169.000000, 0.000000)">
            <path d="M178.633605,203.085125 C179.909286,203.330944 182.666667,204.270506 182.666667,207.8 L182.666667,210.2 C182.666667,212.535636 185,215 185,215 L171,215 C171,215 173.333333,212.535636 173.333333,210.2 L173.333333,207.8 C173.333333,204.270506 176.090714,203.330944 177.366395,203.085125 C177.045588,202.883179 176.833333,202.532335 176.833333,202.133333 C176.833333,201.507411 177.355668,201 178,201 C178.644332,201 179.166667,201.507411 179.166667,202.133333 C179.166667,202.532335 178.954412,202.883179 178.633605,203.085125 L178.633605,203.085125 Z M179.166667,215.866667 L176.833333,215.866667 C176.833333,216.492267 177.356,217 178,217 C178.644,217 179.166667,216.492267 179.166667,215.866667 Z" id="Shape-2" fill="#A6A6A6" sketch:type="MSShapeGroup"></path>
            <path d="M178.633605,203.085125 C179.909286,203.330944 182.666667,204.270506 182.666667,207.8 L182.666667,210.2 C182.666667,212.535636 185,215 185,215 L171,215 C171,215 173.333333,212.535636 173.333333,210.2 L173.333333,207.8 C173.333333,204.270506 176.090714,203.330944 177.366395,203.085125 C177.045588,202.883179 176.833333,202.532335 176.833333,202.133333 C176.833333,201.507411 177.355668,201 178,201 C178.644332,201 179.166667,201.507411 179.166667,202.133333 C179.166667,202.532335 178.954412,202.883179 178.633605,203.085125 L178.633605,203.085125 Z M179.166667,215.866667 L176.833333,215.866667 C176.833333,216.492267 177.356,217 178,217 C178.644,217 179.166667,216.492267 179.166667,215.866667 Z" id="Shape-4" fill="#A6A6A6" sketch:type="MSShapeGroup"></path>
            <path d="M228.633605,203.085125 C229.909286,203.330944 232.666667,204.270506 232.666667,207.8 L232.666667,210.2 C232.666667,212.535636 235,215 235,215 L221,215 C221,215 223.333333,212.535636 223.333333,210.2 L223.333333,207.8 C223.333333,204.270506 226.090714,203.330944 227.366395,203.085125 C227.045588,202.883179 226.833333,202.532335 226.833333,202.133333 C226.833333,201.507411 227.355668,201 228,201 C228.644332,201 229.166667,201.507411 229.166667,202.133333 C229.166667,202.532335 228.954412,202.883179 228.633605,203.085125 L228.633605,203.085125 Z M229.166667,215.866667 L226.833333,215.866667 C226.833333,216.492267 227.356,217 228,217 C228.644,217 229.166667,216.492267 229.166667,215.866667 Z" id="Shape-5" fill="#474747" sketch:type="MSShapeGroup"></path>
            <path d="M183.007905,631.048 L174,631.048 L174,628.813 C175.439,627.751 176.73,626.382 179.116,625.72 L179.116,625.664 C177.755,624.353 176.982,621.793 176.982,619.896 C176.982,617.24 178.489,615 181.017,615 C183.545,615 185.011,617.154 185.011,619.81 C185.011,621.463113 184.440849,623.651407 183.401959,625.071788 L180.349133,625.51539 L183.440066,628.528305 L183.007905,631.048 L183.007905,631.048 Z M186.009821,631.048 L187.052179,631.048 L186.531,630.774 L186.009821,631.048 L186.009821,631.048 Z M186.531,630.274 L183.298181,631.973593 L183.915595,628.373797 L181.300189,625.824407 L184.914591,625.299203 L186.531,622.024 L188.147409,625.299203 L191.761811,625.824407 L189.146405,628.373797 L189.763819,631.973593 L186.531,630.274 Z" id="Shape-3" fill="#A6A6A6" sketch:type="MSShapeGroup"></path>
            <path d="M233.007905,631.048 L224,631.048 L224,628.813 C225.439,627.751 226.73,626.382 229.116,625.72 L229.116,625.664 C227.755,624.353 226.982,621.793 226.982,619.896 C226.982,617.24 228.489,615 231.017,615 C233.545,615 235.011,617.154 235.011,619.81 C235.011,621.463113 234.440849,623.651407 233.401959,625.071788 L230.349133,625.51539 L233.440066,628.528305 L233.007905,631.048 L233.007905,631.048 Z M236.009821,631.048 L237.052179,631.048 L236.531,630.774 L236.009821,631.048 L236.009821,631.048 Z M236.531,630.274 L233.298181,631.973593 L233.915595,628.373797 L231.300189,625.824407 L234.914591,625.299203 L236.531,622.024 L238.147409,625.299203 L241.761811,625.824407 L239.146405,628.373797 L239.763819,631.973593 L236.531,630.274 Z" id="Shape-7" fill="#F2F2F2" sketch:type="MSShapeGroup"></path>
            <path d="M179,478 C178.287056,477.218612 177.94651,476.827527 178,476 C177.188708,476.10074 176.785622,475.778631 176,475 C176.357694,475.086923 176.376151,474.6738 176,474 C175.481525,473.914329 173.532022,473.349015 172,474 C172.266886,471.380363 174.653164,468.748519 175,469 L178,469 C178.545126,468.684097 178.943312,468.162736 179,468 C181.962203,464.833178 185.532062,463.607914 189,464 C189.481825,467.396019 188.542411,471.144066 186,474 C185.52352,474.473624 185.045606,474.918519 185,475 L185,479 C185.25461,478.91606 182.868332,481.547904 180,482 C180.870602,480.387235 180.18629,478.426533 180,477 C179.387241,477.56165 178.987823,477.609404 179,478 Z M183,470 C184.082877,470.16201 185.032043,470.128865 186,470 C186.16201,468.917123 186.128865,467.967957 186,467 C184.917123,466.83799 183.967957,466.871135 183,467 C182.83799,468.082877 182.871135,469.032043 183,470 Z M176,476 L173,476 L173,481 L178,481 L178,478 L176,478 L176,476 Z" id="Oval-25" fill="#A6A6A6" sketch:type="MSShapeGroup"></path>
            <path d="M229,478 C228.287056,477.218612 227.94651,476.827527 228,476 C227.188708,476.10074 226.785622,475.778631 226,475 C226.357694,475.086923 226.376151,474.6738 226,474 C225.481525,473.914329 223.532022,473.349015 222,474 C222.266886,471.380363 224.653164,468.748519 225,469 L228,469 C228.545126,468.684097 228.943312,468.162736 229,468 C231.962203,464.833178 235.532062,463.607914 239,464 C239.481825,467.396019 238.542411,471.144066 236,474 C235.52352,474.473624 235.045606,474.918519 235,475 L235,479 C235.25461,478.91606 232.868332,481.547904 230,482 C230.870602,480.387235 230.18629,478.426533 230,477 C229.387241,477.56165 228.987823,477.609404 229,478 Z M233,470 C234.082877,470.16201 235.032043,470.128865 236,470 C236.16201,468.917123 236.128865,467.967957 236,467 C234.917123,466.83799 233.967957,466.871135 233,467 C232.83799,468.082877 232.871135,469.032043 233,470 Z M226,476 L223,476 L223,481 L228,481 L228,478 L226,478 L226,476 Z" id="Oval-26" fill="#F2F2F2" sketch:type="MSShapeGroup"></path>
            <path d="M174.5,265 C175.880712,265 177,263.880712 177,262.5 C177,261.119288 175.880712,260 174.5,260 C173.119288,260 172,261.119288 172,262.5 C172,263.880712 173.119288,265 174.5,265 Z M181.5,265 C182.880712,265 184,263.880712 184,262.5 C184,261.119288 182.880712,260 181.5,260 C180.119288,260 179,261.119288 179,262.5 C179,263.880712 180.119288,265 181.5,265 Z M188.5,265 C189.880712,265 191,263.880712 191,262.5 C191,261.119288 189.880712,260 188.5,260 C187.119288,260 186,261.119288 186,262.5 C186,263.880712 187.119288,265 188.5,265 Z" id="Oval-10" fill="#999999" sketch:type="MSShapeGroup"></path>
            <rect id="Rectangle-path" fill="#232323" sketch:type="MSShapeGroup" x="219" y="12" width="16" height="3"></rect>
            <path d="M225,165 L228,165 L228,159 L234,159 L234,156 L228,156 L228,150 L225,150 L225,156 L219,156 L219,159 L225,159 L225,165 Z" id="Shape" fill="#CA1200" sketch:type="MSShapeGroup"></path>
            <path d="M234.745,114.339 L231.917,111.511 C231.868,111.462 231.806,111.437 231.75,111.4 C233.393,109.077 233.19,105.847 231.109,103.767 C228.785,101.442 225.016,101.442 222.691,103.767 C220.366,106.091 220.366,109.86 222.691,112.185 C224.794,114.288 228.069,114.469 230.397,112.767 C230.433,112.82 230.456,112.879 230.503,112.926 L233.331,115.754 C233.722,116.145 234.355,116.145 234.745,115.754 C235.135,115.362 235.135,114.729 234.745,114.339 L234.745,114.339 Z M229.918,110.992 C228.252,112.658 225.551,112.658 223.884,110.992 C222.218,109.326 222.218,106.624 223.884,104.958 C225.55,103.292 228.252,103.292 229.918,104.958 C231.585,106.625 231.585,109.326 229.918,110.992 L229.918,110.992 Z" id="Shape" fill="#474747" sketch:type="MSShapeGroup"></path>
            <rect id="Rectangle-path" fill="#232323" sketch:type="MSShapeGroup" x="219" y="6" width="16" height="3"></rect>
            <rect id="Rectangle-path" fill="#232323" sketch:type="MSShapeGroup" x="219" y="0" width="16" height="3"></rect>
            <path d="M232.92,661.988 C231.589,661.988 230.439,663.088 230.439,664.433 C230.439,665.687 231.256,666.513 232.497,666.513 C233.858,666.513 235.008,665.474 235.008,664.067 C235.008,662.813 234.131,661.988 232.92,661.988 L232.92,661.988 Z" id="Shape" fill="#F2F2F2" sketch:type="MSShapeGroup"></path>
            <g id="Group" sketch:type="MSLayerGroup" transform="translate(223.000000, 361.000000)" fill="#FFFFFF">
                <path d="M4.5,0 C3.119,0 2,1.119 2,2.5 C2,2.671 2.018,2.838 2.05,3 L4,3 L4,13 L2.5,13 C1.119,13 0,14.119 0,15.5 C0,15.671 0.018,15.838 0.05,16 L7,16 L7,22 L8,23 L9,22 L9,16.507 L8.534,16.041 L10.711,13.864 L8.617,11.77 L11.938,8.449 L12,8.512 L12,3 L13.949,3 C13.982,2.838 13.999,2.671 13.999,2.5 C13.999,1.119 12.88,0 11.499,0 L4.5,0 L4.5,0 Z" id="Shape" sketch:type="MSShapeGroup"></path>
                <path d="M9.958,11.372 L12.596,14.01 L10.021,16.597 L11.435,18.011 L14.01,15.424 L16.629,18.042 L18.043,16.628 L15.421,14.006 L18.043,11.372 L16.628,9.958 L14.007,12.592 L11.372,9.957 L9.958,11.372 Z" id="Shape" sketch:type="MSShapeGroup"></path>
            </g>
            <path d="M224.993,671.893 C224.993,672.076 225.174,672.291 225.387,672.291 C225.931,672.291 227.383,669.631 228.503,669.631 C228.745,669.631 229.018,669.906 228.806,670.456 L226.689,675.837 C226.477,676.357 225.448,678.864 225.448,680.331 C225.448,681.493 226.204,682.012 227.294,682.012 C230.35,682.012 233.889,678.221 233.889,677.335 C233.889,677.06 233.678,676.877 233.527,676.877 C233.103,676.877 231.438,679.476 230.531,679.476 C230.289,679.476 230.169,679.261 230.169,679.048 C230.169,678.559 230.502,677.794 230.683,677.336 L232.861,671.375 C233.951,668.409 232.558,667.615 231.257,667.615 C229.502,667.615 227.929,668.501 226.719,669.663 C226.324,670.059 224.993,671.342 224.993,671.893 L224.993,671.893 Z" id="Shape" fill="#F2F2F2" sketch:type="MSShapeGroup"></path>
            <path d="M184.745,114.339 L181.917,111.511 C181.868,111.462 181.806,111.437 181.75,111.4 C183.393,109.077 183.19,105.847 181.109,103.767 C178.785,101.442 175.016,101.442 172.691,103.767 C170.366,106.091 170.366,109.86 172.691,112.185 C174.794,114.288 178.069,114.469 180.397,112.767 C180.433,112.82 180.456,112.879 180.503,112.926 L183.331,115.754 C183.722,116.145 184.355,116.145 184.745,115.754 C185.135,115.362 185.135,114.729 184.745,114.339 L184.745,114.339 Z M179.918,110.992 C178.252,112.658 175.551,112.658 173.884,110.992 C172.218,109.326 172.218,106.624 173.884,104.958 C175.55,103.292 178.251,103.292 179.918,104.958 C181.585,106.625 181.585,109.326 179.918,110.992 L179.918,110.992 Z" id="Shape" fill="#BBBBBB" sketch:type="MSShapeGroup"></path>
            <rect id="Rectangle-path" fill="#565656" sketch:type="MSShapeGroup" x="169" y="12" width="16" height="3"></rect>
            <rect id="Rectangle-path" fill="#565656" sketch:type="MSShapeGroup" x="169" y="0" width="16" height="3"></rect>
            <rect id="Rectangle-path" fill="#565656" sketch:type="MSShapeGroup" x="169" y="6" width="16" height="3"></rect>
            <path d="M189,376.5 C189,375.119 187.881,374 186.5,374 L185,374 L185,364 L186.95,364 C186.983,363.838 187,363.671 187,363.5 C187,362.119 185.881,361 184.5,361 L177.5,361 C176.119,361 175,362.119 175,363.5 C175,363.671 175.018,363.838 175.05,364 L177,364 L177,374 L175.5,374 C174.119,374 173,375.119 173,376.5 C173,376.671 173.018,376.838 173.05,377 L180,377 L180,383 L181,384 L182,383 L182,377 L188.95,377 C188.983,376.838 189,376.671 189,376.5 L189,376.5 Z" id="Shape" fill="#000000" sketch:type="MSShapeGroup"></path>
            <path d="M175,165 L178,165 L178,159 L184,159 L184,156 L178,156 L178,150 L175,150 L175,156 L169,156 L169,159 L175,159 L175,165 Z" id="Shape" fill="#565656" sketch:type="MSShapeGroup"></path>
            <path d="M174.993,671.893 C174.993,672.076 175.174,672.291 175.386,672.291 C175.93,672.291 177.382,669.631 178.502,669.631 C178.744,669.631 179.017,669.906 178.805,670.456 L176.688,675.837 C176.476,676.357 175.447,678.864 175.447,680.331 C175.447,681.493 176.203,682.012 177.293,682.012 C180.349,682.012 183.888,678.221 183.888,677.335 C183.888,677.06 183.677,676.877 183.526,676.877 C183.102,676.877 181.437,679.476 180.53,679.476 C180.288,679.476 180.168,679.261 180.168,679.048 C180.168,678.559 180.501,677.794 180.682,677.336 L182.86,671.375 C183.95,668.409 182.557,667.615 181.256,667.615 C179.501,667.615 177.928,668.501 176.718,669.663 C176.324,670.059 174.993,671.342 174.993,671.893 L174.993,671.893 Z" id="Shape" fill="#A6A6A6" sketch:type="MSShapeGroup"></path>
            <path d="M182.92,661.988 C181.589,661.988 180.439,663.088 180.439,664.433 C180.439,665.687 181.256,666.513 182.497,666.513 C183.858,666.513 185.008,665.474 185.008,664.067 C185.008,662.813 184.131,661.988 182.92,661.988 L182.92,661.988 Z" id="Shape" fill="#A6A6A6" sketch:type="MSShapeGroup"></path>
            <path d="M170.047,321.783 L172.935,318.893 L175.782,321.741 C175.865,321.687 175.957,321.649 176.03,321.576 C176.6,321.006 176.6,320.082 176.03,319.512 L175.411,318.893 L179.537,314.765 L180.321,315.549 C180.404,315.495 180.496,315.457 180.569,315.384 C181.139,314.814 181.139,313.89 180.569,313.32 L177.681,310.43 C177.111,309.86 176.187,309.86 175.618,310.43 C175.545,310.503 175.508,310.595 175.453,310.678 L176.237,311.462 L172.11,315.59 L171.491,314.971 C170.921,314.401 169.997,314.401 169.428,314.971 C169.355,315.044 169.318,315.136 169.263,315.219 L172.11,318.067 L169.222,320.957 L169.222,321.783 L170.047,321.783 L170.047,321.783 Z" id="Shape" fill="#777777" sketch:type="MSShapeGroup"></path>
            <path d="M220.047,321.783 L222.935,318.893 L225.782,321.741 C225.865,321.687 225.957,321.649 226.03,321.576 C226.6,321.006 226.6,320.082 226.03,319.512 L225.411,318.893 L229.537,314.765 L230.321,315.549 C230.404,315.495 230.496,315.457 230.569,315.384 C231.139,314.814 231.139,313.89 230.569,313.32 L227.681,310.43 C227.111,309.86 226.187,309.86 225.618,310.43 C225.545,310.503 225.508,310.595 225.453,310.678 L226.237,311.462 L222.11,315.59 L221.491,314.971 C220.921,314.401 219.997,314.401 219.428,314.971 C219.355,315.044 219.318,315.136 219.263,315.219 L222.11,318.067 L219.222,320.957 L219.222,321.783 L220.047,321.783 L220.047,321.783 Z" id="Shape-6" fill="#444444" sketch:type="MSShapeGroup"></path>
            <path d="M174,50 L171,53 L169,55 L174,55 L174,50 Z" id="Shape" fill="#CCCCCC" sketch:type="MSShapeGroup"></path>
            <path d="M169,709.515 L169,722.485 L175.485,716 L169,709.515 Z" id="Shape" fill="#434341" sketch:type="MSShapeGroup"></path>
            <path d="M175,759.515 L175,772.485 L168.515,766 L175,759.515 Z" id="Shape" fill="#434341" sketch:type="MSShapeGroup"></path>
            <path d="M183,433 L188,433 L188,424 L191.606602,424 L191.606602,424 L181,413.393398 L170.393398,424 L174,424 L174,424 L174,433 L179,433 L179,426 L183,426 L183,433 Z" id="Rectangle-16" fill="#A6A6A6" sketch:type="MSShapeGroup"></path>
            <path d="M233,433 L238,433 L238,424 L241.606602,424 L241.606602,424 L231,413.393398 L220.393398,424 L224,424 L224,424 L224,433 L229,433 L229,426 L233,426 L233,433 Z" id="Rectangle-18" fill="#F2F2F2" sketch:type="MSShapeGroup"></path>
            <g id="Group-3" sketch:type="MSLayerGroup" transform="translate(221.000000, 513.000000)" fill="#F2F2F2">
                <path d="M14,9 L11,9 L11,4 C11,3.448 10.552,3 10,3 C9.448,3 9,3.448 9,4 L9,10 C9,10.552 9.448,11 10,11 L14,11 C14.552,11 15,10.552 15,10 C15,9.447 14.552,9 14,9 L14,9 Z" id="Shape" sketch:type="MSShapeGroup"></path>
                <path d="M10,0 C4.477,0 0,4.477 0,10 C0,15.523 4.477,20 10,20 C15.523,20 20,15.523 20,10 C20,4.477 15.523,0 10,0 L10,0 Z M10,18 C5.582,18 2,14.418 2,10 C2,5.582 5.582,2 10,2 C14.418,2 18,5.582 18,10 C18,14.418 14.418,18 10,18 L10,18 Z" id="Shape" sketch:type="MSShapeGroup"></path>
            </g>
            <g id="Group-2" sketch:type="MSLayerGroup" transform="translate(171.000000, 513.000000)" fill="#A6A6A6">
                <path d="M10,0 C4.477,0 0,4.477 0,10 C0,15.523 4.477,20 10,20 C15.523,20 20,15.523 20,10 C20,4.477 15.523,0 10,0 L10,0 Z M10,18 C5.582,18 2,14.418 2,10 C2,5.582 5.582,2 10,2 C14.418,2 18,5.582 18,10 C18,14.418 14.418,18 10,18 L10,18 Z" id="Shape" sketch:type="MSShapeGroup"></path>
                <path d="M14,9 L11,9 L11,4 C11,3.448 10.552,3 10,3 C9.448,3 9,3.448 9,4 L9,10 C9,10.552 9.448,11 10,11 L14,11 C14.552,11 15,10.552 15,10 C15,9.447 14.552,9 14,9 L14,9 Z" id="Shape" sketch:type="MSShapeGroup"></path>
            </g>
            <path d="M173.5,575 C174.880712,575 176,573.880712 176,572.5 C176,571.119288 174.880712,570 173.5,570 C172.119288,570 171,571.119288 171,572.5 C171,573.880712 172.119288,575 173.5,575 Z M180.5,575 C181.880712,575 183,573.880712 183,572.5 C183,571.119288 181.880712,570 180.5,570 C179.119288,570 178,571.119288 178,572.5 C178,573.880712 179.119288,575 180.5,575 Z M187.5,575 C188.880712,575 190,573.880712 190,572.5 C190,571.119288 188.880712,570 187.5,570 C186.119288,570 185,571.119288 185,572.5 C185,573.880712 186.119288,575 187.5,575 Z" id="Oval-10" fill="#999999" sketch:type="MSShapeGroup"></path>
            <path d="M223.5,575 C224.880712,575 226,573.880712 226,572.5 C226,571.119288 224.880712,570 223.5,570 C222.119288,570 221,571.119288 221,572.5 C221,573.880712 222.119288,575 223.5,575 Z M230.5,575 C231.880712,575 233,573.880712 233,572.5 C233,571.119288 231.880712,570 230.5,570 C229.119288,570 228,571.119288 228,572.5 C228,573.880712 229.119288,575 230.5,575 Z M237.5,575 C238.880712,575 240,573.880712 240,572.5 C240,571.119288 238.880712,570 237.5,570 C236.119288,570 235,571.119288 235,572.5 C235,573.880712 236.119288,575 237.5,575 Z" id="Oval-12" fill="#F2F2F2" sketch:type="MSShapeGroup"></path>
        </g>
    </g>
</svg>