<?xml version="1.0" encoding="UTF-8" standalone="no"?>
<svg width="12px" height="612px" viewBox="0 0 12 612" version="1.1" xmlns="http://www.w3.org/2000/svg" xmlns:xlink="http://www.w3.org/1999/xlink" xmlns:sketch="http://www.bohemiancoding.com/sketch/ns">
    <!-- Generator: Sketch 3.4.4 (17249) - http://www.bohemiancoding.com/sketch -->
    <title>icon_user_menu</title>
    <desc>Created with Sketch.</desc>
    <defs></defs>
    <g id="Page-1" stroke="none" stroke-width="1" fill="none" fill-rule="evenodd" sketch:type="MSPage">
        <g id="all" sketch:type="MSArtboardGroup">
            <g id="icon_user_menu" sketch:type="MSLayerGroup">
                <path d="M12.008,10 L7.008,7.5 L7.008,6.786 C8.171,6.304 9.008,5.022 9.008,3.5 C9.008,0.838 8.204,-4.4408921e-16 6.008,-4.4408921e-16 C3.789,-4.4408921e-16 3.008,0.838 3.008,3.5 C3.008,5.022 3.845,6.303 5.008,6.786 L5.008,7.5 L0.008,10 L0.008,12 L12.008,12 L12.008,10 L12.008,10 Z M9.008,202.758 L9.008,205.001 L5.008,205.001 L5.008,207.001 L9.008,207.001 L9.008,209.244 L12.251,206.001 L9.008,202.758 L9.008,202.758 Z M5.008,364.001 C5.008,364.979 5.404,365.84 6.008,366.387 L6.008,367.991 L3.008,370.001 L3.008,372.001 L12.008,372.001 L12.008,370.001 L8.993,368.001 L9.008,368.001 L9.008,366.387 C9.612,365.839 10.008,364.979 10.008,364.001 C10.008,361.719 9.338,361.001 7.508,361.001 C5.659,361 5.008,361.719 5.008,364.001 L5.008,364.001 Z M8.008,288.001 L8.008,286.001 L8.088,286.001 C8.652,285.369 9.008,284.487 9.008,283.501 C9.008,280.839 8.204,280 6.008,280 C3.789,280 3.008,280.838 3.008,283.501 C3.008,285.023 3.845,286.304 5.008,286.786 L5.008,287.5 L0.008,290 L0.008,292 L6.008,292 L8.008,292 L8.008,291 L6.008,291 L6.008,288 L8.008,288 L8.008,288.001 Z M1.008,88 L1.008,91 C1.008,91.552 1.456,92 2.008,92 L3.008,92 C3.56,92 4.008,91.552 4.008,91 L4.008,88 C4.008,87.448 3.56,87 3.008,87 L4.008,87 L4.008,86 L3.008,86 L3.008,81.656 C3.008,80.965 3.477,80.937 3.477,80.937 C3.477,80.661 2.784,80 2.508,80 C2.232,80 1.664,80.567 1.664,80.844 C1.664,80.844 2.008,80.896 2.008,81.5 L2.008,86 L1.008,86 L1.008,87 L2.008,87 C1.456,87 1.008,87.448 1.008,88 L1.008,88 Z M11.008,326.001 L7.008,326.001 L7.008,332.001 L11.008,332.001 L11.008,326.001 L11.008,326.001 Z M7.008,203 L7.008,201 L1.008,201 L1.008,211 L7.008,211 L7.008,209 L3.008,209 L3.008,203 L7.008,203 L7.008,203 Z M11.008,241.001 L5.008,241.001 L5.008,243.001 L9.008,243.001 L9.008,249.001 L5.008,249.001 L5.008,251.001 L11.008,251.001 L11.008,241.001 L11.008,241.001 Z M0.008,371 L2.008,371 L2.008,369.6 L5.402,367.144 C4.565,366.416 4.008,365.295 4.008,364 C4.008,361.747 4.512,360.642 5.822,360.217 C5.472,360.073 5.046,360 4.508,360 C2.659,360 2.008,360.718 2.008,363 C2.008,363.978 2.404,364.839 3.008,365.386 L3.008,366.479 L0.008,369 L0.008,371 L0.008,371 Z M0.008,325.001 L5.008,325.001 L5.008,323.001 L5.563,323.001 C5.826,322.403 4.875,321.427 4.067,320.767 C3.951,320.672 3.838,320.583 3.732,320.503 C2.851,319.837 1.732,319.833 1.232,320.494 C0.733,321.155 1.042,322.231 1.923,322.897 C1.974,322.935 2.042,322.967 2.101,323.002 L0.008,323.002 L0.008,325.001 L0.008,325.001 Z M2.292,321.336 C2.575,321 3.21,321.003 3.71,321.341 C4.21,321.679 5.009,322.329 4.725,322.665 C4.442,323.001 3.183,322.895 2.684,322.556 C2.184,322.218 2.008,321.672 2.292,321.336 L2.292,321.336 Z M5.008,332.001 L5.008,326.001 L1.008,326.001 L1.008,332.001 L5.008,332.001 L5.008,332.001 Z M0.008,247 L4.008,247 L4.008,249.243 L7.251,246 L4.008,242.757 L4.008,245 L0.008,245 L0.008,247 L0.008,247 Z M10.008,481.001 L2.008,481.001 C1.456,481.001 1.008,481.449 1.008,482.001 L1.008,490.001 C1.008,490.553 1.456,491.001 2.008,491.001 L10.008,491.001 C10.56,491.001 11.008,490.553 11.008,490.001 L11.008,482.001 C11.008,481.448 10.561,481.001 10.008,481.001 L10.008,481.001 Z M7.02,486.012 L7.02,490.001 L4.994,490.001 L4.994,486.012 L2.022,486.012 L6.007,482.022 L10.023,486.012 L7.02,486.012 L7.02,486.012 Z M8.008,526.001 L8.008,525.001 L10.008,525.001 L10.008,526.001 L11.008,526.001 L11.008,521.001 C11.008,520.449 10.56,520.001 10.008,520.001 L2.008,520.001 C1.456,520.001 1.008,520.449 1.008,521.001 L1.008,531.001 C1.008,531.553 1.456,532.001 2.008,532.001 L6.008,532.001 L6.008,530.001 L5.008,530.001 L5.008,528.001 L6.008,528.001 L6.008,527.001 L5.008,527.001 L5.008,525.001 L7.008,525.001 L7.008,526.001 L8.008,526.001 L8.008,526.001 Z M8.008,522.001 L10.008,522.001 L10.008,524.001 L8.008,524.001 L8.008,522.001 L8.008,522.001 Z M4.008,530.001 L2.008,530.001 L2.008,528.001 L4.008,528.001 L4.008,530.001 L4.008,530.001 Z M4.008,527.001 L2.008,527.001 L2.008,525.001 L4.008,525.001 L4.008,527.001 L4.008,527.001 Z M4.008,524.001 L2.008,524.001 L2.008,522.001 L4.008,522.001 L4.008,524.001 L4.008,524.001 Z M5.008,524.001 L5.008,522.001 L7.008,522.001 L7.008,524.001 L5.008,524.001 L5.008,524.001 Z M10.008,527.001 L9.008,527.001 L9.008,529.001 L7.008,529.001 L7.008,530.001 L9.008,530.001 L9.008,532.001 L10.008,532.001 L10.008,530.001 L12.008,530.001 L12.008,529.001 L10.008,529.001 L10.008,527.001 L10.008,527.001 Z M10.008,287.001 L9.008,287.001 L9.008,289.001 L7.008,289.001 L7.008,290.001 L9.008,290.001 L9.008,292.001 L10.008,292.001 L10.008,290.001 L12.008,290.001 L12.008,289.001 L10.008,289.001 L10.008,287.001 L10.008,287.001 Z M10.093,322.896 C10.974,322.23 11.283,321.154 10.784,320.493 C10.284,319.832 9.165,319.836 8.284,320.502 C7.446,321.135 6.152,322.317 6.453,323 L7.008,323 L7.008,325 L12.008,325 L12.008,323 L9.914,323 C9.974,322.965 10.042,322.934 10.093,322.896 L10.093,322.896 Z M9.333,322.556 C8.833,322.894 7.575,323 7.292,322.665 C7.009,322.329 7.808,321.679 8.307,321.341 C8.807,321.003 9.442,321.001 9.725,321.336 C10.008,321.672 9.833,322.218 9.333,322.556 L9.333,322.556 Z M12.008,82 C12.008,81.448 11.56,81 11.008,81 L10.008,81 C10.008,80.448 9.56,80 9.008,80 L7.008,80 C6.456,80 6.008,80.447 6.008,81 L5.008,81 L5.008,80 L4.008,80 L4.008,81 L4.008,82 L4.008,83 L5.008,83 L5.008,82 L6.008,82 C6.008,82.552 6.456,83 7.008,83 L7.008,91 C7.008,91.552 7.456,92 8.008,92 C8.56,92 9.008,91.552 9.008,91 L9.008,83 L11.008,83 C11.56,83 12.008,82.553 12.008,82 L12.008,82 Z M5.501,41 C3.02,41 1.008,43.012 1.008,45.493 C1.008,47.974 3.02,49.986 5.501,49.986 C6.451,49.986 7.33,49.687 8.056,49.184 L9.49,50.732 C9.837,51.079 10.4,51.079 10.746,50.732 C11.093,50.385 11.093,49.822 10.746,49.475 L9.198,48.041 C9.698,47.317 9.994,46.441 9.994,45.494 C9.994,43.012 7.983,41 5.501,41 L5.501,41 Z M5.517,48.009 C4.137,48.009 3.018,46.89 3.018,45.51 C3.018,44.13 4.137,43.011 5.517,43.011 C6.897,43.011 8.016,44.13 8.016,45.51 C8.017,46.89 6.898,48.009 5.517,48.009 L5.517,48.009 Z M3.008,132.001 L8.008,132.001 C8.56,132.001 9.008,131.553 9.008,131.001 L9.008,121.001 C9.008,120.449 8.56,120.001 8.008,120.001 L3.008,120.001 C2.456,120.001 2.008,120.449 2.008,121.001 L2.008,131.001 C2.008,131.553 2.456,132.001 3.008,132.001 L3.008,132.001 Z M5.508,131 C5.232,131 5.008,130.881 5.008,130.734 C5.008,130.587 5.232,130.468 5.508,130.468 C5.784,130.468 6.008,130.587 6.008,130.734 C6.008,130.882 5.784,131 5.508,131 L5.508,131 Z M5.508,121.001 C5.784,121.001 6.008,121.134 6.008,121.298 C6.008,121.462 5.784,121.595 5.508,121.595 C5.232,121.595 5.008,121.462 5.008,121.298 C5.008,121.133 5.232,121.001 5.508,121.001 L5.508,121.001 Z M3.008,122.001 L8.008,122.001 L8.008,130.001 L3.008,130.001 L3.008,122.001 L3.008,122.001 Z M2.209,168.399 L0.958,169.65 L2.375,171.067 L3.612,169.83 C4.035,170.098 4.504,170.299 5.007,170.414 L5.007,172.024 L7.01,172.024 L7.01,170.407 C7.51,170.288 7.98,170.094 8.401,169.825 L9.642,171.066 L11.059,169.649 L9.814,168.404 C10.073,167.983 10.266,167.515 10.374,167.017 L12.016,167.017 L12.016,165.014 L10.344,165.014 C10.224,164.531 10.036,164.075 9.775,163.666 L11.059,162.382 C11.059,162.382 10.7,162.023 10.343,161.666 C9.991,161.314 9.643,160.966 9.643,160.966 L8.345,162.264 C7.938,162.013 7.488,161.832 7.01,161.718 L7.01,160.009 L5.007,160.009 L5.007,161.718 C4.53,161.832 4.079,162.014 3.673,162.266 L2.374,160.967 L0.957,162.384 L2.242,163.669 C1.983,164.078 1.787,164.531 1.67,165.016 L0,165.016 L0,167.019 L1.652,167.019 C1.764,167.513 1.949,167.98 2.209,168.399 L2.209,168.399 Z M4.008,165.032 L5.008,163.938 L6.977,163.938 L8.008,164.969 L8.008,167 L7.039,168.031 L5.008,168.031 L4.008,166.968 L4.008,165.032 L4.008,165.032 Z M11.008,441.001 C11.008,440.449 10.56,440.001 10.008,440.001 L2.008,440.001 C1.456,440.001 1.008,440.449 1.008,441.001 L1.008,451.001 C1.008,451.553 1.456,452.001 2.008,452.001 L10.008,452.001 C10.56,452.001 11.008,451.553 11.008,451.001 L11.008,441.001 L11.008,441.001 Z M4.008,450.001 L2.008,450.001 L2.008,448.001 L4.008,448.001 L4.008,450.001 L4.008,450.001 Z M4.008,447.001 L2.008,447.001 L2.008,445.001 L4.008,445.001 L4.008,447.001 L4.008,447.001 Z M4.008,444.001 L2.008,444.001 L2.008,442.001 L4.008,442.001 L4.008,444.001 L4.008,444.001 Z M7.008,450.001 L5.008,450.001 L5.008,448.001 L7.008,448.001 L7.008,450.001 L7.008,450.001 Z M7.008,447.001 L5.008,447.001 L5.008,445.001 L7.008,445.001 L7.008,447.001 L7.008,447.001 Z M7.008,444.001 L5.008,444.001 L5.008,442.001 L7.008,442.001 L7.008,444.001 L7.008,444.001 Z M10.008,450.001 L8.008,450.001 L8.008,448.001 L10.008,448.001 L10.008,450.001 L10.008,450.001 Z M10.008,447.001 L8.008,447.001 L8.008,445.001 L10.008,445.001 L10.008,447.001 L10.008,447.001 Z M10.008,444.001 L8.008,444.001 L8.008,442.001 L10.008,442.001 L10.008,444.001 L10.008,444.001 Z" id="Shape" fill="#1A1A1A" sketch:type="MSShapeGroup"></path>
                <path d="M8.84698866,601.633553 L9.99901755,602.298677 C10.5236603,602.60158 10.939931,603.323182 10.939931,603.928387 L10.939931,608.071613 C10.939931,608.677418 10.5231409,609.39872 9.99901755,609.701323 L6.41087888,611.772935 C5.88623613,612.075838 5.05317538,612.075538 4.52905207,611.772935 L0.940913407,609.701323 C0.416270657,609.39842 0,608.676818 0,608.071613 L0,603.928387 C0,603.322582 0.416790096,602.60128 0.940913407,602.298677 L4.52905207,600.227065 C5.05369482,599.924162 5.88675557,599.924462 6.41087888,600.227065 L7.11493785,600.633553 L4.55225767,605.072245 L6.28430847,606.072245 L8.84698866,601.633553 Z M4.32480368,605.531635 C4.32480368,605.531635 3.36286315,605.962299 2.80500182,607.045551 C2.24714049,608.128803 2.35468444,609.501606 2.35468444,609.501606 C2.35468444,609.501606 4.62359075,609.736365 5.36737975,608.506244 C5.81525569,607.765522 5.97846374,607.423115 5.97846374,606.530536 C5.45990905,606.127704 4.32480368,605.531635 4.32480368,605.531635 Z" id="Shape-Copy" fill="#000000" sketch:type="MSShapeGroup"></path>
                <path d="M12,561.071068 L12,570 L0,570 L0,561.071068 L6,567.071068 L12,561.071068 L12,561.071068 Z M0.928932188,561 L11.0710678,561 L6,566.071068 L0.928932188,561 L0.928932188,561 Z" id="Rectangle-130" fill="#000000" sketch:type="MSShapeGroup"></path>
                <path d="M12.001,410.002 L9.998,410.002 L9.998,411.537 L6.966,408.501 L9.998,405.466 L9.998,407.001 L12.001,407.001 L12.001,410.002 L12.001,410.002 Z M9.537,412.002 L9.998,411.537 L9.998,412.002 L9.537,412.002 L9.537,412.002 Z M7.999,406.464 L5.964,408.501 L9.464,412.002 L0,412.002 L0,409.999 L5,407.5 L5,406.787 C3.838,406.302 3.001,405.021 3.001,403.501 C3.001,400.837 3.78,400 5.999,400 C8.195,400 9,400.837 9,403.501 C9,404.531 8.61,405.445 7.999,406.083 L7.999,406.464 L7.999,406.464 Z" id="follow" fill="#393939" sketch:type="MSShapeGroup"></path>
            </g>
        </g>
    </g>
</svg>